<svg width="60" height="40" viewBox="0 0 60 40" fill="none" xmlns="http://www.w3.org/2000/svg">
<rect x="0.5" y="0.5" width="59" height="39" rx="3.5" fill="white" stroke="#F8F9FA"/>
<path d="M35.949 28.6977V26.9481C35.949 26.9481 35.9398 26.796 35.863 26.78C35.753 26.7668 35.6421 26.7619 35.5313 26.7655V28.6961H32.0748V26.694C31.8273 26.7789 31.5751 26.8495 31.3194 26.9055C30.8417 26.9816 29.8741 26.9603 29.8741 26.9603V28.6977H25.7162L24.6794 27.5627L23.5992 28.6977H16.7759V21.2194H23.6981L24.7159 22.3398L25.7892 21.2194H30.2377C30.6067 21.2521 30.9786 21.2597 31.3476 21.3106C31.6534 21.3688 31.9447 21.4867 32.2049 21.6575V21.2194H35.526C35.8305 21.2111 36.1353 21.2197 36.4388 21.2452C36.8047 21.2565 37.1676 21.314 37.519 21.4164C37.7097 21.4872 37.8961 21.569 38.0774 21.6613V21.2194H44.3622V21.6682C44.5415 21.5564 44.7307 21.4612 44.9273 21.3837C45.3077 21.2673 45.7124 21.249 46.1102 21.2194C47.201 21.2232 49.3987 21.2194 49.3987 21.2194V21.6682C49.5825 21.5612 49.7754 21.4709 49.9753 21.3981C50.5519 21.2232 51.1688 21.2194 51.7667 21.2194H53.9909V28.382H53.3702C52.7791 28.6634 52.128 28.7114 51.473 28.7H48.1625V28.258C48.1625 28.258 47.7061 28.6984 46.8009 28.7L35.949 28.6977Z" fill="white" stroke="white" stroke-width="0.09" stroke-miterlimit="10"/>
<path d="M47.7061 12.0005V12.8373L47.1881 12.0005H43.5459V12.8692L43.0933 12.0005H38.9217C38.4729 11.9967 38.0203 12.015 37.5707 12.0188C37.2573 12.0621 36.9363 12.088 36.6336 12.1793C36.4065 12.2459 36.1854 12.3314 35.9725 12.4349V12.0005H32.5715V12.4235C32.1864 12.1552 31.7301 12.0079 31.2608 12.0005C30.7086 12.0005 29.5782 12.0005 29.5782 12.0005H18.6768L17.8119 13.9197L16.9797 12.0005H13.0386L13.0272 12.8289L12.6119 12.0005H9.26486L7.72143 15.5263L6 19.4636H9.89395L10.3869 18.2739H11.4998L11.9957 19.4598H16.3134V18.5805L16.6937 19.4636H18.9453L19.3181 18.617V19.4636H30.0437V17.5041C30.134 17.5007 30.2243 17.5073 30.313 17.5239C30.3516 17.5369 30.3846 17.5627 30.4065 17.597C30.4285 17.6313 30.4382 17.672 30.434 17.7125V19.4621H35.974V19.0171C36.1964 19.1202 36.4251 19.2091 36.6587 19.2833C37.3189 19.4735 38.6988 19.4621 38.6988 19.4621H40.3974L40.8995 18.2648H41.9835L42.5015 19.4621H46.9614V18.3287L47.684 19.4636H51.2501V12.0005H47.7061Z" fill="white"/>
<path d="M47.7061 12.0005V12.8373L47.1881 12.0005H43.5459V12.8692L43.0933 12.0005H38.9217C38.4729 11.9967 38.0203 12.015 37.5707 12.0188C37.2573 12.0621 36.9363 12.088 36.6336 12.1793C36.4065 12.2459 36.1854 12.3314 35.9725 12.4349V12.0005H32.5715V12.4235C32.1864 12.1552 31.7301 12.0079 31.2608 12.0005C30.7086 12.0005 29.5782 12.0005 29.5782 12.0005H18.6768L17.8119 13.9197L16.9797 12.0005H13.0386L13.0272 12.8289L12.6119 12.0005H9.26486L7.72143 15.5263L6 19.4636H9.89395L10.3869 18.2739H11.4998L11.9957 19.4598H16.3134V18.5805L16.6937 19.4636H18.9453L19.3181 18.617V19.4636H30.0437V17.5041C30.134 17.5007 30.2243 17.5073 30.313 17.5239C30.3516 17.5369 30.3846 17.5627 30.4065 17.597C30.4285 17.6313 30.4382 17.672 30.434 17.7125V19.4621H35.974V19.0171C36.1964 19.1202 36.4251 19.2091 36.6587 19.2833C37.3189 19.4735 38.6988 19.4621 38.6988 19.4621H40.3974L40.8995 18.2648H41.9835L42.5015 19.4621H46.9614V18.3287L47.684 19.4636H51.2501V12.0005H47.7061Z" stroke="white" stroke-width="0.09" stroke-miterlimit="10"/>
<path d="M22.4087 13.0571H26.7012V14.1776L23.7414 14.1807V15.1338L25.4271 15.1368L26.632 15.1406V15.8306L26.635 16.2573H23.8943L23.7262 16.2725L23.7117 17.2941L26.7043 17.2979V18.4253H23.5292H22.4087V13.064V13.0571Z" fill="#0075D2"/>
<path d="M33.4998 18.4253L33.4922 13.0571V13.064L34.8356 13.0571V18.4253" fill="#0075D2"/>
<path d="M21.4705 13.0572H19.3406L18.9602 13.9586L17.7819 16.6971L17.2997 15.6389L16.1138 13.0526H14.0074L14.0013 18.1127L13.9017 17.8845L12.3172 14.1982L11.8395 13.0572H9.9233L7.62451 18.4253H9.02189L9.07666 18.3089L9.51862 17.244H12.2046L12.6679 18.4261H15.277V14.2286L16.4561 16.8492L17.1681 18.4253H18.2954L19.3604 16.0094L20.1454 14.3306V18.4253H21.4735L21.4705 13.0572ZM9.98872 16.0999L10.0648 15.9105L10.846 14.0453L11.361 15.2221L11.7041 16.0938L9.98872 16.0999Z" fill="#0075D2"/>
<path d="M43.1359 18.4254L42.6575 17.2471H39.9669L39.5105 18.4254C39.5105 18.4254 38.2934 18.4148 37.6894 18.4254C37.352 18.4068 37.02 18.3317 36.7074 18.2033C36.4822 18.1191 36.277 17.9891 36.1047 17.8213C35.9325 17.6535 35.7971 17.4518 35.7071 17.2289C35.5215 16.8896 35.485 16.4948 35.4371 16.119C35.4251 15.9063 35.4277 15.6931 35.4447 15.4808C35.4956 15.1446 35.5253 14.8015 35.6455 14.4843C35.7817 14.0876 36.0334 13.7406 36.3681 13.4878C36.5104 13.3745 36.6853 13.3197 36.8496 13.2436C37.3753 13.0573 37.9412 13.0535 38.492 13.0573H39.3424V14.2181C39.3424 14.2181 38.3353 14.2067 37.8355 14.2325C37.5723 14.2903 37.2802 14.3672 37.1052 14.59C37.0019 14.7266 36.9195 14.8779 36.8611 15.0388C36.744 15.513 36.7401 16.0081 36.8496 16.4841C36.9485 16.7686 37.1052 17.0927 37.4194 17.1885C37.8025 17.2815 38.1976 17.3148 38.5909 17.2874C38.6852 17.0242 38.9157 16.51 38.9157 16.51L40.3975 13.0573H42.3205L44.4626 18.0534L44.477 16.5245V13.0573H46.4921L46.6746 13.411L47.554 14.8707L47.8096 15.3089L48.6745 16.7177V13.0573H50.0171V18.4254L48.2036 18.4368L45.7694 14.444L45.7588 18.4254H43.1359ZM42.1782 16.0825L42.0139 15.6482L41.7949 15.1195L41.3384 14.0424L41.1049 14.568L40.6554 15.6596L40.4987 16.0825" fill="#0075D2"/>
<path d="M31.4121 18.4253C31.4121 18.4253 31.4167 17.7483 31.4053 17.4037C31.3997 17.2556 31.3775 17.1087 31.3391 16.9655C31.3076 16.8532 31.2379 16.7553 31.1421 16.6887C30.8797 16.5099 30.551 16.4916 30.2445 16.484C29.8033 16.4764 28.8867 16.4802 28.8867 16.4802V16.7084V18.4268H27.5874V13.0609C27.5874 13.0609 29.7934 13.0609 30.9017 13.0571C31.2457 13.0481 31.5884 13.1025 31.9127 13.2176C32.1827 13.3378 32.4489 13.5097 32.5912 13.776C32.7958 14.148 32.7996 14.5975 32.7114 15.0022C32.595 15.4077 32.2808 15.7287 31.9233 15.9363C32.0367 16.0238 32.1645 16.0824 32.277 16.1645C32.4781 16.3153 32.6191 16.5326 32.6749 16.7777C32.7509 17.3246 32.719 18.423 32.719 18.423L31.4121 18.4253ZM28.8867 15.3613H30.3175C30.5807 15.3613 30.8576 15.3871 31.0949 15.2555C31.3992 15.0478 31.4342 14.5146 31.1132 14.3031C30.968 14.2339 30.8106 14.194 30.6499 14.186C30.1494 14.1639 29.1499 14.1753 29.1499 14.1753H28.8867" fill="#0075D2"/>
<path d="M38.9673 22.298H43.2667V23.4215H40.2772V24.3777H43.1937V25.4982H40.2772V26.5571L43.2667 26.5609V27.6844H38.9711" fill="#0075D2"/>
<path d="M46.0842 23.4551C45.856 23.4551 45.6057 23.4513 45.4049 23.5829C45.2337 23.735 45.1767 24.0241 45.3288 24.2066C45.3874 24.3055 45.5076 24.3344 45.6103 24.3671C46.2706 24.4219 46.9491 24.3527 47.5881 24.5391C47.8317 24.6081 48.0548 24.7358 48.2377 24.911C48.4819 25.2214 48.5655 25.6268 48.5549 26.0171C48.5298 26.3525 48.4933 26.707 48.2993 26.9953C48.101 27.2569 47.8293 27.4537 47.5188 27.5605C47.2191 27.648 47.1278 27.6906 46.5878 27.6883C45.7267 27.6883 44.0014 27.6845 44.0014 27.6845V26.5275C44.0014 26.5275 45.7753 26.5275 46.6638 26.5206C46.8319 26.5206 47.0145 26.4621 47.1058 26.3122C47.1933 26.2103 47.1819 26.0642 47.1712 25.9402C47.1529 25.7691 46.9848 25.6664 46.8388 25.6154C46.5735 25.5863 46.3069 25.5716 46.0401 25.5713C45.6418 25.5718 45.2457 25.5128 44.8648 25.3964C44.5526 25.3143 44.2804 25.1226 44.098 24.8563C43.7732 24.2538 43.7808 23.4589 44.2114 22.9112C44.3732 22.7172 44.5759 22.5615 44.805 22.4553C45.0341 22.349 45.2839 22.2948 45.5365 22.2966H48.3084C48.3084 22.6252 48.3046 23.4536 48.3046 23.4536" fill="#0075D2"/>
<path d="M53.3032 22.2964V23.4496H50.869C50.6822 23.4475 50.5014 23.5151 50.3616 23.639C50.309 23.6961 50.2739 23.7671 50.2605 23.8435C50.247 23.92 50.2557 23.9987 50.2855 24.0703C50.3182 24.2597 50.5191 24.3403 50.6834 24.3693C50.9534 24.3731 51.2159 24.4202 51.4859 24.4058C51.731 24.4041 51.976 24.4189 52.2192 24.4499C52.617 24.5077 53.0369 24.6393 53.2963 24.9679C53.4918 25.2524 53.5868 25.594 53.5664 25.9385C53.5943 26.2827 53.518 26.6273 53.3473 26.9274C53.1952 27.2492 52.8764 27.4462 52.5478 27.5482C52.2751 27.6351 51.9912 27.6818 51.705 27.6866C50.818 27.6866 49.0426 27.6866 49.0426 27.6866V26.5273C49.0426 26.5273 50.8195 26.5273 51.705 26.5273C51.7942 26.528 51.8819 26.5042 51.9585 26.4585C52.0351 26.4127 52.0977 26.3468 52.1393 26.2679C52.2816 26.0633 52.1682 25.7537 51.9461 25.6594C51.851 25.6008 51.7377 25.6153 51.6358 25.6008C51.3216 25.5574 51.0074 25.5932 50.694 25.5643C50.3251 25.5057 49.9455 25.4624 49.61 25.2981C49.2708 25.1459 49.0555 24.8127 48.946 24.4697C48.876 24.1152 48.8509 23.7394 48.9673 23.3925C49.0774 23.0418 49.3163 22.7458 49.6359 22.5641C49.9309 22.39 50.267 22.2976 50.6096 22.2964" fill="#0075D2"/>
<path d="M24.575 25.9479L23.7725 26.7983L22.9358 27.6815H17.8506V22.2966H23.0187L24.6093 24.037L26.2737 22.2966H30.1714C30.4747 22.2886 30.7781 22.3118 31.0766 22.3658C31.5216 22.4464 31.9636 22.6647 32.2336 23.0375C32.4605 23.4435 32.5464 23.9132 32.4778 24.3732C32.4602 24.6843 32.3497 24.9829 32.1606 25.2305C32.0117 25.4034 31.8309 25.5459 31.6281 25.6504C31.3033 25.7868 30.9581 25.8683 30.6065 25.8916C29.9638 25.906 28.6683 25.906 28.6683 25.906V27.683H26.1573L24.575 25.9479ZM26.1094 24.282L25.4346 25.0267L27.0693 26.8523L27.347 27.1695V22.9515L26.1094 24.2835V24.282ZM19.146 23.4277V24.377H21.9492V25.4914H19.146V26.5564L22.2846 26.5526L22.7996 26.0087L23.7444 24.994L22.3249 23.4285H19.146V23.4277ZM28.6713 23.4239V24.7688C28.6713 24.7688 29.4564 24.7726 29.8428 24.7794C30.0984 24.7726 30.3616 24.8053 30.6134 24.7429C30.7655 24.6958 30.9306 24.6189 30.9998 24.4698C31.1169 24.2903 31.1025 24.0682 31.0759 23.8613C31.0173 23.646 30.7982 23.4414 30.5723 23.4345C30.4146 23.4187 30.256 23.4138 30.0976 23.4201C29.623 23.4201 28.6706 23.4201 28.6706 23.4201L28.6713 23.4239Z" fill="#0075D2"/>
<path d="M33.0948 22.2966H36.1939C36.1939 22.2966 36.4852 22.2889 36.6678 22.3004C37.1827 22.3148 37.7776 22.5704 38.0803 22.9933C38.2812 23.3037 38.2994 23.6939 38.2485 24.0484C38.1861 24.5406 37.8286 24.9567 37.398 25.1758C37.5806 25.3218 37.8141 25.404 37.9632 25.5918C38.1458 25.8071 38.1716 26.103 38.1967 26.3731C38.2043 26.8112 38.1967 27.683 38.1967 27.683H36.8982C36.8982 27.683 36.9089 26.8622 36.8868 26.4499C36.8655 26.1867 36.7301 25.9022 36.4601 25.8147C36.1094 25.6907 35.7268 25.7272 35.3579 25.7196C35.0445 25.7128 34.4123 25.7341 34.4123 25.7341V27.683H33.0948C33.0948 27.683 33.088 24.0918 33.0948 22.2966V22.2966ZM34.4085 23.4239V24.6106C34.4085 24.6106 35.6203 24.6395 36.2266 24.6068C36.416 24.5923 36.6244 24.5307 36.7339 24.3588C36.8435 24.2066 36.8283 24.0043 36.81 23.8263C36.7773 23.6148 36.5567 23.5076 36.3574 23.4764C36.1733 23.4467 35.9816 23.4361 35.796 23.4216C35.3282 23.4216 34.4017 23.4216 34.4017 23.4216L34.4085 23.4239Z" fill="#0075D2"/>
</svg>
