<svg width="24" height="25" viewBox="0 0 24 25" fill="none" xmlns="http://www.w3.org/2000/svg">
<g clip-path="url(#clip0_376_1221)">
<path d="M17.4936 11.9604C16.3069 11.9604 15.1469 12.3127 14.1602 12.9727C13.1735 13.6327 12.4045 14.5708 11.9503 15.6684C11.4962 16.7659 11.3774 17.9736 11.6089 19.1388C11.8404 20.3039 12.4119 21.3742 13.251 22.2142C14.0901 23.0542 15.1592 23.6263 16.3231 23.858C17.487 24.0898 18.6934 23.9708 19.7897 23.5162C20.8861 23.0616 21.8232 22.2917 22.4824 21.304C23.1417 20.3162 23.4936 19.1549 23.4936 17.9669C23.4898 16.3751 22.8565 14.8495 21.7321 13.7239C20.6077 12.5983 19.0838 11.9643 17.4936 11.9604ZM17.4936 22.789C16.5443 22.789 15.6162 22.5071 14.8269 21.9791C14.0375 21.4511 13.4223 20.7007 13.059 19.8226C12.6957 18.9446 12.6006 17.9784 12.7859 17.0463C12.9711 16.1142 13.4282 15.258 14.0995 14.586C14.7708 13.914 15.6261 13.4563 16.5572 13.2709C17.4883 13.0855 18.4534 13.1806 19.3305 13.5443C20.2076 13.908 20.9572 14.5239 21.4847 15.3141C22.0121 16.1043 22.2936 17.0334 22.2936 17.9838C22.2898 19.257 21.7829 20.477 20.8835 21.3773C19.9842 22.2777 18.7655 22.7852 17.4936 22.789ZM19.8024 19.4373C19.8655 19.4909 19.9167 19.557 19.9531 19.6313C19.9894 19.7057 20.01 19.7868 20.0135 19.8695C20.017 19.9522 20.0035 20.0347 19.9736 20.1119C19.9438 20.1891 19.8983 20.2593 19.8401 20.3181C19.7819 20.3769 19.7122 20.423 19.6353 20.4535C19.5584 20.484 19.4761 20.4983 19.3935 20.4955C19.3108 20.4926 19.2297 20.4727 19.1551 20.437C19.0805 20.4013 19.0141 20.3505 18.96 20.2879L17.0736 18.3994C17.0179 18.3435 16.9738 18.2772 16.9437 18.2042C16.9137 18.1313 16.8983 18.0531 16.8984 17.9741V14.8003C16.8984 14.641 16.9616 14.4882 17.0742 14.3756C17.1867 14.263 17.3393 14.1997 17.4984 14.1997C17.6576 14.1997 17.8102 14.263 17.9227 14.3756C18.0352 14.4882 18.0984 14.641 18.0984 14.8003V17.7267L19.8024 19.4373ZM5.30883 20.098H9.76323C9.92236 20.098 10.075 20.0348 10.1875 19.9221C10.3 19.8095 10.3632 19.6567 10.3632 19.4974C10.3632 19.3381 10.3 19.1853 10.1875 19.0727C10.075 18.96 9.92236 18.8967 9.76323 18.8967H6.16323V15.7397C6.16259 15.3895 6.02332 15.0537 5.77591 14.806C5.5285 14.5584 5.19312 14.4189 4.84323 14.4183H1.69683V8.52233H18.4152V10.2041C18.4152 10.283 18.4307 10.3611 18.4609 10.434C18.4911 10.5069 18.5352 10.5731 18.591 10.6289C18.6467 10.6846 18.7128 10.7289 18.7856 10.7591C18.8584 10.7893 18.9364 10.8048 19.0152 10.8048C19.094 10.8048 19.172 10.7893 19.2448 10.7591C19.3176 10.7289 19.3838 10.6846 19.4395 10.6289C19.4952 10.5731 19.5394 10.5069 19.5696 10.434C19.5997 10.3611 19.6152 10.283 19.6152 10.2041V4.29376C19.6146 3.94349 19.4753 3.60775 19.2279 3.36007C18.9805 3.11239 18.6451 2.97296 18.2952 2.97233H16.212V1.28571C16.212 1.20581 16.1961 1.12671 16.1652 1.05304C16.1343 0.97937 16.0891 0.912614 16.0321 0.856679C15.9751 0.800743 15.9075 0.756753 15.8333 0.727284C15.7591 0.697815 15.6798 0.683459 15.6 0.685057H12.8184C12.6593 0.685057 12.5067 0.748339 12.3942 0.860983C12.2816 0.973626 12.2184 1.1264 12.2184 1.28571V2.96752H7.89843V1.28571C7.89843 1.1264 7.83521 0.973626 7.72269 0.860983C7.61017 0.748339 7.45756 0.685057 7.29843 0.685057H4.50243C4.3433 0.685057 4.19068 0.748339 4.07816 0.860983C3.96564 0.973626 3.90243 1.1264 3.90243 1.28571V2.96752H1.81683C1.46694 2.96816 1.13156 3.10758 0.884146 3.35526C0.636735 3.60294 0.497461 3.93868 0.496826 4.28895V15.2832C0.499073 15.4405 0.562839 15.5906 0.674426 15.7013L4.88403 19.9227C4.93985 19.9784 5.0061 20.0226 5.07899 20.0527C5.15188 20.0828 5.22998 20.0982 5.30883 20.098ZM4.97283 15.7397V18.3129L2.28243 15.6196H4.85283C4.88465 15.6196 4.91517 15.6323 4.93768 15.6548C4.96018 15.6773 4.97283 15.7079 4.97283 15.7397ZM13.4184 1.88636H15.012V4.57486H13.4184V1.88636ZM5.10243 1.88636H6.69603V4.57486H5.10243V1.88636ZM1.81683 4.16882H3.90003V5.17071C3.90003 5.33001 3.96324 5.48279 4.07576 5.59543C4.18828 5.70807 4.3409 5.77136 4.50003 5.77136H7.29363C7.45276 5.77136 7.60537 5.70807 7.71789 5.59543C7.83041 5.48279 7.89363 5.33001 7.89363 5.17071V4.16882H12.2136V5.17071C12.2136 5.33001 12.2768 5.48279 12.3894 5.59543C12.5019 5.70807 12.6545 5.77136 12.8136 5.77136H15.6C15.7592 5.77136 15.9118 5.70807 16.0243 5.59543C16.1368 5.48279 16.2 5.33001 16.2 5.17071V4.16882H18.2832C18.3151 4.16882 18.3456 4.18148 18.3681 4.20401C18.3906 4.22654 18.4032 4.25709 18.4032 4.28895V7.32103H1.69683V4.29376C1.69618 4.27758 1.6988 4.26144 1.70455 4.24631C1.71029 4.23118 1.71902 4.21736 1.73023 4.20569C1.74144 4.19402 1.75489 4.18474 1.76977 4.1784C1.78465 4.17207 1.80066 4.16881 1.81683 4.16882Z" fill="#478DCB"/>
</g>
<defs>
<clipPath id="clip0_376_1221">
<rect width="24" height="24.026" fill="white" transform="translate(0 0.324677)"/>
</clipPath>
</defs>
</svg>
