<svg width="24" height="24" viewBox="0 0 24 24" fill="none" xmlns="http://www.w3.org/2000/svg">
<path d="M17.4936 11.6232C16.3069 11.6232 15.1469 11.9751 14.1602 12.6344C13.1735 13.2937 12.4045 14.2307 11.9503 15.3271C11.4962 16.4234 11.3774 17.6298 11.6089 18.7937C11.8404 19.9576 12.4119 21.0267 13.251 21.8658C14.0901 22.7049 15.1592 23.2764 16.3231 23.5079C17.487 23.7394 18.6934 23.6206 19.7897 23.1665C20.8861 22.7123 21.8232 21.9433 22.4824 20.9566C23.1417 19.9699 23.4936 18.8099 23.4936 17.6232C23.4898 16.0331 22.8565 14.5091 21.7321 13.3847C20.6077 12.2603 19.0838 11.627 17.4936 11.6232ZM17.4936 22.44C16.5443 22.44 15.6162 22.1585 14.8269 21.631C14.0375 21.1036 13.4223 20.354 13.059 19.4769C12.6957 18.5998 12.6006 17.6347 12.7859 16.7036C12.9711 15.7724 13.4282 14.9172 14.0995 14.2459C14.7708 13.5746 15.6261 13.1174 16.5572 12.9322C17.4883 12.747 18.4534 12.8421 19.3305 13.2054C20.2076 13.5687 20.9572 14.1839 21.4847 14.9732C22.0121 15.7626 22.2936 16.6906 22.2936 17.64C22.2898 18.9119 21.7829 20.1305 20.8835 21.0299C19.9842 21.9293 18.7655 22.4362 17.4936 22.44ZM19.8024 19.092C19.8655 19.1455 19.9167 19.2115 19.9531 19.2858C19.9894 19.3601 20.01 19.441 20.0135 19.5236C20.017 19.6063 20.0035 19.6887 19.9736 19.7658C19.9438 19.8429 19.8983 19.9131 19.8401 19.9718C19.7819 20.0305 19.7122 20.0765 19.6353 20.107C19.5584 20.1375 19.4761 20.1518 19.3935 20.149C19.3108 20.1461 19.2297 20.1262 19.1551 20.0906C19.0805 20.0549 19.0141 20.0042 18.96 19.9416L17.0736 18.0552C17.0179 17.9994 16.9738 17.9331 16.9437 17.8602C16.9137 17.7873 16.8983 17.7092 16.8984 17.6304V14.46C16.8984 14.3009 16.9616 14.1482 17.0742 14.0357C17.1867 13.9232 17.3393 13.86 17.4984 13.86C17.6576 13.86 17.8102 13.9232 17.9227 14.0357C18.0352 14.1482 18.0984 14.3009 18.0984 14.46V17.3832L19.8024 19.092ZM5.30883 19.752H9.76323C9.92236 19.752 10.075 19.6888 10.1875 19.5763C10.3 19.4637 10.3632 19.3111 10.3632 19.152C10.3632 18.9929 10.3 18.8402 10.1875 18.7277C10.075 18.6152 9.92236 18.552 9.76323 18.552H6.16323V15.3984C6.16259 15.0485 6.02332 14.7131 5.77591 14.4657C5.5285 14.2183 5.19312 14.079 4.84323 14.0784H1.69683V8.18878H18.4152V9.86878C18.4152 9.94758 18.4307 10.0256 18.4609 10.0984C18.4911 10.1712 18.5352 10.2373 18.591 10.293C18.6467 10.3488 18.7128 10.393 18.7856 10.4231C18.8584 10.4533 18.9364 10.4688 19.0152 10.4688C19.094 10.4688 19.172 10.4533 19.2448 10.4231C19.3176 10.393 19.3838 10.3488 19.4395 10.293C19.4952 10.2373 19.5394 10.1712 19.5696 10.0984C19.5997 10.0256 19.6152 9.94758 19.6152 9.86878V3.96478C19.6146 3.61489 19.4753 3.27951 19.2279 3.0321C18.9805 2.78469 18.6451 2.64542 18.2952 2.64478H16.212V0.959983C16.212 0.88017 16.1961 0.801156 16.1652 0.727567C16.1343 0.653979 16.0891 0.587294 16.0321 0.53142C15.9751 0.475545 15.9075 0.431602 15.8333 0.402165C15.7591 0.372727 15.6798 0.358387 15.6 0.359983H12.8184C12.6593 0.359983 12.5067 0.423197 12.3942 0.535719C12.2816 0.648241 12.2184 0.800853 12.2184 0.959983V2.63998H7.89843V0.959983C7.89843 0.800853 7.83521 0.648241 7.72269 0.535719C7.61017 0.423197 7.45756 0.359983 7.29843 0.359983H4.50243C4.3433 0.359983 4.19068 0.423197 4.07816 0.535719C3.96564 0.648241 3.90243 0.800853 3.90243 0.959983V2.63998H1.81683C1.46694 2.64062 1.13156 2.77989 0.884146 3.0273C0.636735 3.27471 0.497461 3.61009 0.496826 3.95998V14.9424C0.499073 15.0995 0.562839 15.2494 0.674426 15.36L4.88403 19.5768C4.93985 19.6325 5.0061 19.6766 5.07899 19.7067C5.15188 19.7367 5.22998 19.7521 5.30883 19.752ZM4.97283 15.3984V17.9688L2.28243 15.2784H4.85283C4.88465 15.2784 4.91517 15.291 4.93768 15.3135C4.96018 15.336 4.97283 15.3666 4.97283 15.3984ZM13.4184 1.55998H15.012V4.24558H13.4184V1.55998ZM5.10243 1.55998H6.69603V4.24558H5.10243V1.55998ZM1.81683 3.83998H3.90003V4.84078C3.90003 4.99991 3.96324 5.15253 4.07576 5.26505C4.18828 5.37757 4.3409 5.44078 4.50003 5.44078H7.29363C7.45276 5.44078 7.60537 5.37757 7.71789 5.26505C7.83041 5.15253 7.89363 4.99991 7.89363 4.84078V3.83998H12.2136V4.84078C12.2136 4.99991 12.2768 5.15253 12.3894 5.26505C12.5019 5.37757 12.6545 5.44078 12.8136 5.44078H15.6C15.7592 5.44078 15.9118 5.37757 16.0243 5.26505C16.1368 5.15253 16.2 4.99991 16.2 4.84078V3.83998H18.2832C18.3151 3.83998 18.3456 3.85263 18.3681 3.87513C18.3906 3.89763 18.4032 3.92816 18.4032 3.95998V6.98878H1.69683V3.96478C1.69618 3.94863 1.6988 3.9325 1.70455 3.91739C1.71029 3.90227 1.71902 3.88847 1.73023 3.87681C1.74144 3.86515 1.75489 3.85588 1.76977 3.84955C1.78465 3.84323 1.80066 3.83997 1.81683 3.83998Z" fill="#58C3F0"/>
</svg>
