<svg width="22" height="22" viewBox="0 0 22 22" fill="none" xmlns="http://www.w3.org/2000/svg">
<path d="M0.199951 0.200012H1.15995V21.8H0.199951V0.200012ZM1.75995 21.8H2.47995V0.200012H1.75995V21.8ZM3.43995 21.8H4.15995V0.200012H3.43995V21.8ZM5.59995 21.8H6.31995V0.200012H5.59995V21.8ZM7.51995 21.8H8.71995V0.200012H7.51995V21.8ZM10.4 21.8H11.12V0.200012H10.4V21.8ZM11.5999 21.8H12.32V0.200012H11.5999V21.8ZM12.7999 21.8H13.5199V0.200012H12.7999V21.8ZM14.7199 21.8H15.9199V0.200012H14.7199V21.8ZM16.6399 21.8H17.84V0.200012H16.6399V21.8ZM18.32 21.8H19.5199V0.200012H18.32V21.8ZM20.1199 0.200012V21.8H21.7999V0.200012H20.1199Z" fill="#58C3F0"/>
</svg>
