<svg width="24" height="25" viewBox="0 0 24 25" fill="none" xmlns="http://www.w3.org/2000/svg">
<path d="M1.19995 1.44265H2.15995V23.066H1.19995V1.44265ZM2.75995 23.066H3.47995V1.44265H2.75995V23.066ZM4.43995 23.066H5.15995V1.44265H4.43995V23.066ZM6.59995 23.066H7.31995V1.44265H6.59995V23.066ZM8.51995 23.066H9.71995V1.44265H8.51995V23.066ZM11.4 23.066H12.12V1.44265H11.4V23.066ZM12.5999 23.066H13.32V1.44265H12.5999V23.066ZM13.7999 23.066H14.5199V1.44265H13.7999V23.066ZM15.7199 23.066H16.9199V1.44265H15.7199V23.066ZM17.6399 23.066H18.84V1.44265H17.6399V23.066ZM19.32 23.066H20.5199V1.44265H19.32V23.066ZM21.1199 1.44265V23.066H22.7999V1.44265H21.1199Z" fill="#478DCB"/>
</svg>
