<svg width="24" height="24" viewBox="0 0 24 24" fill="none" xmlns="http://www.w3.org/2000/svg">
<path d="M12.3112 13.875H11.6849C11.3196 13.8705 10.9591 13.7906 10.6262 13.6403C10.2932 13.4899 9.99487 13.2724 9.74994 13.0012L9.33744 12.5475C8.09925 11.1957 7.31283 9.49177 7.08744 7.6725C7.04792 7.35774 7.02664 7.04096 7.02369 6.72375C7.02369 6.68625 7.02369 6.64875 7.02369 6.6V5.295C7.02106 4.0907 7.4546 2.92618 8.24413 2.0168C9.03367 1.10742 10.1258 0.514681 11.3185 0.34821C12.5113 0.181738 13.7239 0.452791 14.7323 1.11124C15.7407 1.76969 16.4765 2.771 16.8037 3.93C16.9327 4.36584 16.9983 4.81797 16.9987 5.2725V6.69375C16.9947 7.02214 16.9735 7.3501 16.9349 7.67625C16.8671 8.20647 16.7529 8.72972 16.5937 9.24C16.2119 10.4693 15.5626 11.5989 14.6924 12.5475L14.2499 13.0012C14.0056 13.2741 13.7069 13.4928 13.373 13.6432C13.0391 13.7937 12.6774 13.8727 12.3112 13.875ZM8.36994 7.5375C8.5642 9.07683 9.23109 10.518 10.2787 11.6625L10.6949 12.1162C10.8206 12.2536 10.9736 12.3633 11.1441 12.4382C11.3145 12.5131 11.4987 12.5516 11.6849 12.5512H12.3112C12.498 12.5519 12.6828 12.5135 12.854 12.4386C13.0251 12.3637 13.1787 12.2539 13.3049 12.1162L13.7249 11.6625C14.7766 10.506 15.4435 9.0516 15.6337 7.5C15.6693 7.22515 15.6881 6.94839 15.6899 6.67125V5.2725C15.6896 4.93987 15.6417 4.609 15.5474 4.29C15.3028 3.4354 14.7579 2.69784 14.0129 2.21291C13.2679 1.72799 12.3729 1.5283 11.4924 1.65057C10.6119 1.77283 9.80519 2.20882 9.2205 2.87839C8.63581 3.54795 8.31247 4.40608 8.30994 5.295V6.66C8.31141 6.94101 8.33145 7.22163 8.36994 7.5V7.5375Z" fill="#58C3F0"/>
<path d="M20.0289 23.6887H3.97137C3.52213 23.6877 3.09157 23.5088 2.77392 23.1912C2.45626 22.8735 2.27736 22.443 2.27637 21.9937V17.205C2.31834 16.2669 2.63601 15.3621 3.18963 14.6037C3.74326 13.8453 4.50824 13.267 5.38887 12.9412L7.50012 12.27C7.63252 12.2286 7.77461 12.2303 7.90599 12.2748C8.03736 12.3193 8.15127 12.4042 8.23137 12.5175C8.46389 12.8629 8.72079 13.1912 9.00012 13.5L9.41262 13.9575C9.69884 14.2699 10.0463 14.52 10.4334 14.6922C10.8205 14.8645 11.2389 14.9552 11.6626 14.9587H12.3001C12.7235 14.9575 13.142 14.8686 13.5292 14.6975C13.9165 14.5265 14.2641 14.2771 14.5501 13.965L15.0001 13.5C15.2833 13.1906 15.5451 12.8623 15.7839 12.5175C15.864 12.4042 15.9779 12.3193 16.1092 12.2748C16.2406 12.2303 16.3827 12.2286 16.5151 12.27L18.6114 12.9412C19.4913 13.2665 20.2556 13.8443 20.8086 14.6021C21.3616 15.3599 21.6787 16.264 21.7201 17.2012V21.9937C21.7191 22.4423 21.5407 22.8723 21.2239 23.1899C20.907 23.5074 20.4775 23.6867 20.0289 23.6887ZM7.43262 13.65L5.78262 14.1787C5.16416 14.4199 4.62759 14.833 4.23623 15.3692C3.84487 15.9054 3.61505 16.5424 3.57387 17.205V21.9937C3.57484 22.0988 3.61704 22.1994 3.69137 22.2737C3.76571 22.348 3.86625 22.3902 3.97137 22.3912H20.0289C20.134 22.3902 20.2345 22.348 20.3089 22.2737C20.3832 22.1994 20.4254 22.0988 20.4264 21.9937V17.205C20.3852 16.5424 20.1554 15.9054 19.764 15.3692C19.3726 14.833 18.8361 14.4199 18.2176 14.1787L16.5714 13.65C16.3801 13.9012 16.1964 14.145 15.9639 14.3775L15.5401 14.8387C15.1308 15.2854 14.6331 15.6421 14.0785 15.8862C13.524 16.1302 12.9247 16.2562 12.3189 16.2562H11.6814C11.0765 16.2557 10.4783 16.1298 9.92447 15.8865C9.37068 15.6432 8.87335 15.2877 8.46387 14.8425L8.04012 14.3737C7.83012 14.1487 7.62762 13.905 7.43262 13.65Z" fill="#58C3F0"/>
</svg>
