<svg width="17" height="17" viewBox="0 0 17 17" fill="none" xmlns="http://www.w3.org/2000/svg">
<path id="Instagram" fill-rule="evenodd" clip-rule="evenodd" d="M8.01548 4.89187C6.24129 4.89187 4.80249 6.28658 4.80249 8.00924C4.80249 9.7301 6.24129 11.1262 8.01548 11.1262C9.79028 11.1262 11.2295 9.7301 11.2295 8.00924C11.2295 6.28658 9.79028 4.89187 8.01548 4.89187ZM14.1923 6.80795H12.7841C12.9177 7.24502 12.9901 7.70471 12.9901 8.18343C12.9901 10.8471 10.7623 13.0072 8.01555 13.0072C5.26936 13.0072 3.04156 10.8471 3.04156 8.18343C3.04156 7.70471 3.11456 7.24502 3.24756 6.80795H1.77856V13.5751C1.77856 13.9254 2.06436 14.2103 2.41416 14.2103H13.5567C13.9069 14.2103 14.1923 13.9254 14.1923 13.5751V6.80795ZM11.6563 1.81353C11.2599 1.81353 10.9363 2.13908 10.9363 2.53571V4.26097C10.9363 4.6584 11.2599 4.98255 11.6563 4.98255H13.4647C13.8609 4.98255 14.1851 4.6584 14.1851 4.26097V2.53571C14.1851 2.13908 13.8609 1.81353 13.4647 1.81353H11.6563ZM2.0544 0.0346375H13.9476C15.0774 0.0346375 16.0012 0.959436 16.0012 2.09086V13.9969C16.0012 15.1277 15.0774 16.0519 13.9476 16.0519H2.0544C0.924598 16.0519 0 15.1277 0 13.9969V2.09086C0 0.959436 0.924598 0.0346375 2.0544 0.0346375Z" fill="#2C2D2E"/>
</svg>
