<svg width="17" height="16" viewBox="0 0 17 16" fill="none" xmlns="http://www.w3.org/2000/svg">
<path id="Instagram" fill-rule="evenodd" clip-rule="evenodd" d="M8.0155 4.85199C6.2413 4.85199 4.80251 6.24519 4.80251 7.96599C4.80251 9.68498 6.2413 11.0796 8.0155 11.0796C9.7903 11.0796 11.2295 9.68498 11.2295 7.96599C11.2295 6.24519 9.7903 4.85199 8.0155 4.85199ZM14.1924 6.76599H12.7842C12.9178 7.20259 12.9902 7.66179 12.9902 8.13999C12.9902 10.8008 10.7624 12.9586 8.01557 12.9586C5.26937 12.9586 3.04158 10.8008 3.04158 8.13999C3.04158 7.66179 3.11458 7.20259 3.24758 6.76599H1.77858V13.5258C1.77858 13.8758 2.06438 14.1604 2.41418 14.1604H13.5568C13.907 14.1604 14.1924 13.8758 14.1924 13.5258V6.76599ZM11.6563 1.77698C11.2599 1.77698 10.9363 2.10218 10.9363 2.49838V4.22177C10.9363 4.61877 11.2599 4.94257 11.6563 4.94257H13.4647C13.8609 4.94257 14.1851 4.61877 14.1851 4.22177V2.49838C14.1851 2.10218 13.8609 1.77698 13.4647 1.77698H11.6563ZM2.0544 0H13.9476C15.0774 0 16.0012 0.923799 16.0012 2.054V13.9472C16.0012 15.0768 15.0774 16 13.9476 16H2.0544C0.924598 16 0 15.0768 0 13.9472V2.054C0 0.923799 0.924598 0 2.0544 0Z" fill="#58C3F0"/>
</svg>
