<svg width="40" height="40" viewBox="0 0 40 40" fill="none" xmlns="http://www.w3.org/2000/svg">
<path fill-rule="evenodd" clip-rule="evenodd" d="M7.31595 0L32.7295 0.0159307C34.6568 0.0219536 36.5032 0.791803 37.8639 2.15676C39.2246 3.52171 39.9886 5.37043 39.9886 7.29776V32.7182C39.982 34.6474 39.2127 36.4957 37.8485 37.8599C36.4843 39.2241 34.636 39.9934 32.7068 40L7.28183 39.9863C5.35352 39.9768 3.5069 39.2065 2.14336 37.843C0.779823 36.4794 0.00956996 34.6328 0 32.7045L0.0318474 7.2932C0.0318474 5.36194 0.799046 3.50978 2.16465 2.14417C3.53026 0.778567 5.38241 0.0113751 7.31368 0.0113751L7.31595 0Z" fill="#2E3192"/>
<path fill-rule="evenodd" clip-rule="evenodd" d="M34.3564 18.241H31.4596L30.2626 20.5165H32.2947L34.3564 18.241ZM36.2838 21.9319H33.4598V28.0282C33.4598 29.8942 32.206 30.4335 31.2798 30.4335C30.3969 30.4335 29.4275 30.1035 29.4412 28.4742V21.9319H26.6172L26.6035 28.8793C26.6035 31.5667 28.1418 32.7637 30.2626 32.7637C31.7418 32.7773 32.8932 32.1356 33.5349 31.0001H33.5645V32.4792H36.2952V21.9319H36.2838Z" fill="#FFF200"/>
<path fill-rule="evenodd" clip-rule="evenodd" d="M24.4075 24.7264C24.4075 22.1117 21.6586 21.6475 20.134 21.6475C17.938 21.6475 15.6534 22.1026 15.3097 25.3385H18.0404C18.1292 24.7264 18.384 23.873 19.7881 23.873C20.5208 23.873 21.6563 23.9345 21.6563 25.0996C21.6563 25.6958 21.1033 25.8755 20.6551 25.9347L18.1155 26.3102C16.3064 26.5628 14.9639 27.6232 14.9639 29.6848C14.9639 31.8671 16.6364 32.7637 18.2339 32.7637C20.1772 32.7637 21.0874 31.8808 21.7155 31.2391C21.7466 31.663 21.837 32.0804 21.984 32.4792L24.4189 32.4633C24.4189 31.2982 24.4052 30.4472 24.4052 30.4335V24.7264H24.4075Z" fill="#FFF200"/>
<path fill-rule="evenodd" clip-rule="evenodd" d="M12.3655 18.241H9.54148V21.916H8.07373V23.9049H9.52327V30.3129C9.52327 31.6782 9.95562 32.5885 12.4064 32.5885H12.7796C13.2347 32.5885 13.6762 32.5589 14.1086 32.5452V30.4471C13.9151 30.4631 13.7058 30.4926 13.526 30.4926C12.3768 30.4926 12.3473 30.2651 12.3473 29.6257L12.3609 23.9049H14.1245V21.916H12.3609V18.241H12.3655Z" fill="#FFF200"/>
<path fill-rule="evenodd" clip-rule="evenodd" d="M6.77874 18.2273H3.73175L3.71582 32.4633H6.76281L6.77874 18.2273Z" fill="#FFF200"/>
<path fill-rule="evenodd" clip-rule="evenodd" d="M21.659 28.6995V27.3342C21.3746 27.5617 20.8967 27.7369 19.7316 27.9008C18.6712 28.0806 17.8042 28.3559 17.8042 29.4937C17.8042 30.4517 18.5802 30.7657 19.1195 30.7657C20.3733 30.7657 21.659 29.9738 21.659 28.6881V28.6995Z" fill="#2E3192"/>
</svg>
