<svg width="17" height="16" viewBox="0 0 17 16" fill="none" xmlns="http://www.w3.org/2000/svg">
<path fill-rule="evenodd" clip-rule="evenodd" d="M1.86628 -3.36795e-05L1.85495 0H0V1.85655V1.87547V3.73327H3.73235V0H1.87761L1.86628 -3.36795e-05ZM3.73236 16H8.90096e-06V5.33325H3.73236V16ZM12.0247 5.33319C14.7426 5.33319 15.7483 6.59954 15.9993 8.60998C16.0586 9.07992 15.9993 15.9999 15.9993 15.9999H12.797V10.5066C12.797 9.26538 12.6608 7.96939 10.9617 7.96939C9.23847 7.96939 8.97443 9.02244 8.97443 10.4163V15.9999H5.86492V5.33319H8.88641V6.47605C9.32896 5.63429 10.0957 5.33319 12.0247 5.33319Z" fill="#58C3F0"/>
</svg>
