<svg width="17" height="17" viewBox="0 0 17 17" fill="none" xmlns="http://www.w3.org/2000/svg">
<path fill-rule="evenodd" clip-rule="evenodd" d="M1.8663 0.0346069L1.85552 0.0346375H0V1.90267V3.77195H3.73235V1.91051L3.73237 1.90292L3.73235 1.89535V0.0346375H1.87709L1.8663 0.0346069ZM3.73235 16.0519H0V5.37366H3.73235V16.0519ZM12.0247 5.37359C14.7427 5.37359 15.7483 6.64131 15.9994 8.65392C16.0586 9.12437 15.9994 16.0519 15.9994 16.0519H12.7971V10.5526C12.7971 9.31004 12.6608 8.01265 10.9618 8.01265C9.23855 8.01265 8.9745 9.06683 8.9745 10.4622V16.0519H5.86499V5.37359H8.88648V6.51769C9.32903 5.67501 10.0958 5.37359 12.0247 5.37359Z" fill="#2C2D2E"/>
</svg>
