<svg width="60" height="40" viewBox="0 0 60 40" fill="none" xmlns="http://www.w3.org/2000/svg">
<rect x="0.5" y="0.5" width="59" height="39" rx="3.5" fill="white" stroke="#F8F9FA"/>
<path fill-rule="evenodd" clip-rule="evenodd" d="M30.0241 26.6868C31.7658 28.2895 34.0477 29.1767 36.4145 29.1713C38.9568 29.1713 41.3949 28.1614 43.1926 26.3637C44.9903 24.5661 46.0002 22.1279 46.0002 19.5857C46.0002 17.0434 44.9903 14.6052 43.1926 12.8076C41.3949 11.0099 38.9568 10 36.4145 10C34.0477 9.99463 31.7658 10.8818 30.0241 12.4845C29.0343 13.3834 28.2434 14.4793 27.7022 15.7019C27.1609 16.9244 26.8813 18.2467 26.8813 19.5837C26.8813 20.9207 27.1609 22.243 27.7022 23.4656C28.2434 24.6882 29.0343 25.784 30.0241 26.6829V26.6868Z" fill="#FCB131"/>
<path fill-rule="evenodd" clip-rule="evenodd" d="M44.6595 24.9439C44.6592 24.9049 44.6667 24.8662 44.6815 24.8302C44.6963 24.7941 44.7181 24.7614 44.7457 24.7338C44.7733 24.7062 44.806 24.6844 44.8421 24.6696C44.8781 24.6548 44.9168 24.6473 44.9558 24.6476C44.9959 24.6458 45.036 24.6521 45.0736 24.6661C45.1113 24.6802 45.1457 24.7017 45.1748 24.7293C45.2039 24.757 45.2271 24.7903 45.2431 24.8271C45.259 24.864 45.2673 24.9037 45.2676 24.9439C45.2689 24.9852 45.2618 25.0263 45.2466 25.0648C45.2314 25.1032 45.2085 25.1381 45.1792 25.1673C45.15 25.1966 45.1151 25.2195 45.0767 25.2347C45.0382 25.2498 44.9971 25.257 44.9558 25.2556C44.9156 25.2554 44.8759 25.2471 44.839 25.2312C44.8022 25.2152 44.7689 25.192 44.7412 25.1629C44.7136 25.1337 44.692 25.0993 44.678 25.0617C44.664 25.0241 44.6577 24.984 44.6595 24.9439ZM44.9558 25.1898C45.0205 25.1883 45.0822 25.1619 45.128 25.1161C45.1738 25.0703 45.2002 25.0086 45.2017 24.9439C45.2007 24.9126 45.1936 24.8818 45.1807 24.8533C45.1678 24.8248 45.1493 24.7991 45.1265 24.7777C45.1037 24.7563 45.0768 24.7396 45.0475 24.7286C45.0182 24.7175 44.9871 24.7124 44.9558 24.7134C44.895 24.7144 44.8369 24.739 44.7939 24.782C44.7509 24.825 44.7263 24.8831 44.7253 24.9439C44.7261 25.0062 44.7502 25.066 44.7928 25.1116C44.8355 25.1571 44.8936 25.185 44.9558 25.1898ZM44.9229 25.091H44.857V24.8122H44.9713C44.9943 24.8096 45.0176 24.8151 45.0371 24.8277C45.07 24.8451 45.07 24.8606 45.07 24.8935C45.07 24.9264 45.0545 24.9594 45.0216 24.9594L45.0874 25.091H45.0042L44.9713 24.9768H44.9229V24.9264H44.9887C45.0042 24.9264 45.0042 24.911 45.0042 24.8935C45.0042 24.8761 45.0042 24.878 44.9887 24.8606H44.9229V25.091Z" fill="#FCB131"/>
<path fill-rule="evenodd" clip-rule="evenodd" d="M33.1008 18.5828C33.0679 18.2381 33.002 17.9089 32.9362 17.5623H27.1112C27.1816 17.2236 27.2696 16.8888 27.3746 16.5592H32.6535C32.5373 16.2145 32.4056 15.8679 32.2662 15.5386H27.7871C27.9497 15.194 28.1317 14.8493 28.3293 14.5201H31.7026C31.4853 14.1684 31.2432 13.8325 30.9784 13.515H29.0535C29.3506 13.152 29.6742 12.8115 30.0218 12.4964C28.6472 11.2498 26.9402 10.4291 25.1082 10.1339C23.2762 9.83875 21.3978 10.0818 19.7013 10.8335C18.0047 11.5853 16.5628 12.8134 15.5508 14.3688C14.5387 15.9242 14 17.7399 14 19.5956C14 21.4513 14.5387 23.267 15.5508 24.8224C16.5628 26.3778 18.0047 27.6059 19.7013 28.3577C21.3978 29.1094 23.2762 29.3524 25.1082 29.0573C26.9402 28.7621 28.6472 27.9414 30.0218 26.6948C30.3648 26.3849 30.684 26.0496 30.9765 25.6917H29.0516C28.7916 25.365 28.5498 25.0243 28.3273 24.6711H31.7007C31.9125 24.3455 32.0996 24.0043 32.2603 23.6506H27.7871C27.6328 23.3234 27.4952 22.9886 27.3746 22.6475H32.6535C32.7677 22.3183 32.8471 21.9736 32.9323 21.627C33.0046 21.2898 33.0595 20.9492 33.0969 20.6064C33.1298 20.2731 33.146 19.9383 33.1453 19.6033C33.1453 19.2586 33.1298 18.912 33.0969 18.5828H33.1008Z" fill="#ED1C2E"/>
<path fill-rule="evenodd" clip-rule="evenodd" d="M44.6595 21.8243C44.6577 21.7841 44.664 21.7441 44.678 21.7064C44.692 21.6688 44.7136 21.6344 44.7412 21.6053C44.7689 21.5761 44.8022 21.5529 44.839 21.537C44.8759 21.521 44.9156 21.5127 44.9558 21.5125C44.9971 21.5111 45.0382 21.5183 45.0767 21.5335C45.1151 21.5487 45.15 21.5716 45.1792 21.6008C45.2085 21.63 45.2314 21.6649 45.2466 21.7034C45.2618 21.7418 45.2689 21.783 45.2676 21.8243C45.2676 21.9049 45.2355 21.9822 45.1785 22.0392C45.1215 22.0963 45.0441 22.1283 44.9635 22.1283C44.8829 22.1283 44.8056 22.0963 44.7485 22.0392C44.6915 21.9822 44.6595 21.9049 44.6595 21.8243ZM44.9558 22.0547C45.0169 22.0547 45.0755 22.0304 45.1187 21.9872C45.1619 21.944 45.1862 21.8854 45.1862 21.8243C45.1862 21.7631 45.1619 21.7045 45.1187 21.6613C45.0755 21.6181 45.0169 21.5938 44.9558 21.5938C44.8947 21.5938 44.8361 21.6181 44.7928 21.6613C44.7496 21.7045 44.7253 21.7631 44.7253 21.8243C44.7253 21.8854 44.7496 21.944 44.7928 21.9872C44.8361 22.0304 44.8947 22.0547 44.9558 22.0547ZM44.9229 21.9559H44.857V21.6926H45.0371C45.07 21.71 45.07 21.7429 45.07 21.7758C45.0678 21.7899 45.0622 21.8032 45.0538 21.8146C45.0454 21.8261 45.0344 21.8354 45.0216 21.8417L45.0874 21.9559H45.0042L44.9713 21.8572H44.9229V21.8088H44.9558C44.9713 21.8088 44.9887 21.8088 44.9887 21.7913C44.9887 21.7739 45.0042 21.7758 45.0042 21.7584C45.0042 21.7564 45.0038 21.7544 45.003 21.7525C45.0022 21.7506 45.0011 21.7489 44.9997 21.7475C44.9982 21.746 44.9965 21.7449 44.9946 21.7441C44.9927 21.7433 44.9907 21.7429 44.9887 21.7429C44.9887 21.7255 44.9713 21.7429 44.9558 21.7429H44.9229V21.9559Z" fill="white"/>
<path fill-rule="evenodd" clip-rule="evenodd" d="M26.7825 22.3664C26.5312 22.4443 26.2707 22.4886 26.0079 22.4981C25.5141 22.4981 25.2178 22.1863 25.2178 21.6267C25.2218 21.5055 25.2328 21.3845 25.2507 21.2646L25.3165 20.8773L25.3669 20.5636L25.8103 17.866H26.798L26.6818 18.4586H27.3073L27.1601 19.4462H26.5346L26.2732 21.0709C26.261 21.1249 26.2552 21.1802 26.2557 21.2355C26.2557 21.4505 26.3545 21.5318 26.6024 21.5318C26.7071 21.5303 26.8114 21.5193 26.9141 21.4989L26.7825 22.3703V22.3664Z" fill="#003473"/>
<path fill-rule="evenodd" clip-rule="evenodd" d="M29.9753 22.3334C29.6327 22.4314 29.2782 22.4815 28.9219 22.4825C27.8026 22.4825 27.1616 21.89 27.1616 20.7223C27.1616 19.3571 27.9168 18.3694 28.9703 18.3694C29.8107 18.3694 30.353 18.9291 30.353 19.8005C30.3494 20.1264 30.3111 20.451 30.2387 20.7688H28.1802C28.1691 20.8117 28.1639 20.856 28.1647 20.9004C28.1647 21.3613 28.4765 21.5918 29.0691 21.5918C29.4399 21.5909 29.8059 21.5069 30.1399 21.3458L29.9753 22.3315V22.3334ZM29.3615 19.9806V19.787C29.3702 19.7193 29.3636 19.6505 29.3421 19.5857C29.3206 19.5209 29.2849 19.4618 29.2374 19.4127C29.19 19.3636 29.1322 19.3258 29.0682 19.3021C29.0042 19.2784 28.9356 19.2694 28.8677 19.2757C28.5385 19.2757 28.308 19.5236 28.2093 19.9825L29.3615 19.9806Z" fill="#003473"/>
<path fill-rule="evenodd" clip-rule="evenodd" d="M18.885 22.4167H17.8645L18.457 18.6812L17.1247 22.4167H16.416L16.3346 18.6986L15.7092 22.4167H14.7061L15.5116 17.5638H17.0085L17.0415 20.5577L18.0446 17.5638H19.6906L18.885 22.4167Z" fill="#003473"/>
<path fill-rule="evenodd" clip-rule="evenodd" d="M21.3701 20.6564C21.3063 20.6436 21.2414 20.6377 21.1764 20.639C20.5838 20.639 20.2876 20.8694 20.2876 21.2315C20.282 21.2849 20.2879 21.3389 20.305 21.3898C20.3222 21.4407 20.3501 21.4873 20.3868 21.5264C20.4236 21.5656 20.4683 21.5963 20.518 21.6166C20.5677 21.6369 20.6212 21.6463 20.6749 21.644C21.1687 21.644 21.3662 21.2315 21.3836 20.6564H21.3701ZM22.1969 22.4264H21.3081L21.3236 22.0158C21.0931 22.3276 20.7814 22.4922 20.2392 22.4922C19.7453 22.4922 19.3174 22.0487 19.3174 21.4058C19.3195 21.233 19.3469 21.0614 19.3987 20.8965C19.5633 20.2865 20.1733 19.9089 21.1106 19.8934C21.2248 19.8934 21.4069 19.8934 21.5715 19.9089C21.5959 19.8233 21.607 19.7345 21.6044 19.6456C21.6044 19.3822 21.3894 19.3009 20.913 19.3009C20.6225 19.2986 20.3335 19.3431 20.0571 19.4325L19.9099 19.4655L19.8441 19.481L19.9913 18.5921C20.3778 18.4585 20.783 18.3866 21.1919 18.3791C22.0808 18.3791 22.5591 18.7896 22.5591 19.541C22.5692 19.8002 22.5523 20.0598 22.5087 20.3156L22.2783 21.7312L22.2454 21.979L22.2299 22.1727L22.2124 22.3044L22.1969 22.4264Z" fill="#003473"/>
<path fill-rule="evenodd" clip-rule="evenodd" d="M34.9445 18.501C35.2681 18.5117 35.5841 18.6022 35.8643 18.7644L36.0464 17.711C35.9611 17.6718 35.873 17.6388 35.783 17.6122L35.3705 17.496C35.2141 17.462 35.0543 17.4458 34.8942 17.4476C34.3849 17.4476 34.0886 17.465 33.7749 17.6412C33.5498 17.7892 33.3454 17.9663 33.1668 18.168L33.0351 18.135L31.9817 18.8748L32.032 18.4642H30.9457L30.3027 22.4263H31.3407L31.7183 20.2962C31.7183 20.2962 31.8674 19.9999 31.9333 19.9089C31.9977 19.818 32.0862 19.7469 32.1888 19.7034C32.2914 19.66 32.4041 19.646 32.5142 19.6629H32.5975C32.5627 19.9132 32.5459 20.1655 32.5471 20.4182C32.5471 21.7021 33.2714 22.5076 34.3907 22.5076C34.6967 22.5056 35.0011 22.4613 35.295 22.376L35.4751 21.2586C35.211 21.4173 34.9115 21.5078 34.6037 21.522C33.9956 21.522 33.6354 21.0611 33.6354 20.3368C33.6354 19.2679 34.1777 18.5107 34.9522 18.5107L34.9445 18.501Z" fill="#003473"/>
<path fill-rule="evenodd" clip-rule="evenodd" d="M43.68 17.562L43.4495 18.9446C43.3583 18.7755 43.2231 18.6341 43.0581 18.5356C42.8931 18.4371 42.7045 18.385 42.5123 18.385C42.2244 18.3951 41.9451 18.4853 41.7056 18.6454C41.4662 18.8055 41.2761 19.0291 41.1567 19.2913V19.2738L40.4983 18.8865L40.5642 18.476H39.4623L38.8271 22.4264H39.8477L40.1924 20.2963C40.1924 20.2963 40.4557 20 40.5216 19.909C40.5767 19.8379 40.6463 19.7792 40.7257 19.7368C40.8052 19.6944 40.8927 19.6693 40.9825 19.6631C40.8569 20.0374 40.7954 20.4302 40.8004 20.825C40.8004 21.8126 41.3117 22.469 42.0688 22.469C42.2509 22.4726 42.4315 22.4345 42.5966 22.3577C42.7617 22.2808 42.9071 22.1672 43.0216 22.0256L42.9732 22.4129H43.9414L44.7315 17.5581L43.68 17.562ZM42.4135 21.4795C42.0688 21.4795 41.8868 21.2161 41.8868 20.7049C41.8868 19.9303 42.216 19.3726 42.6924 19.3726C43.0545 19.3726 43.2365 19.6534 43.2365 20.1472C43.2365 20.9373 42.9073 21.4814 42.4135 21.4814V21.4795Z" fill="#003473"/>
<path fill-rule="evenodd" clip-rule="evenodd" d="M37.6574 20.6564C37.5937 20.6434 37.5287 20.6376 37.4637 20.639C36.8711 20.639 36.5748 20.8695 36.5748 21.2316C36.5689 21.285 36.5746 21.3392 36.5916 21.3902C36.6086 21.4412 36.6365 21.488 36.6733 21.5272C36.7101 21.5664 36.755 21.5971 36.8049 21.6173C36.8548 21.6375 36.9084 21.6466 36.9621 21.6441C37.456 21.6441 37.6535 21.2316 37.669 20.6564H37.6574ZM38.4804 22.4167H37.576L37.6089 22.0062C37.3785 22.318 37.0667 22.4825 36.5226 22.4825C36.0133 22.4825 35.5679 22.0546 35.5679 21.3962C35.5679 20.4589 36.2766 19.8838 37.3959 19.8838C37.5102 19.8838 37.6903 19.8838 37.8394 19.8993C37.8673 19.8141 37.8836 19.7255 37.8878 19.6359C37.8878 19.3726 37.6748 19.2912 37.181 19.2912C36.8906 19.2905 36.6018 19.3349 36.325 19.4229L36.1934 19.4558L36.1275 19.4713L36.2766 18.5825C36.6631 18.4487 37.0683 18.3768 37.4772 18.3694C38.3661 18.3694 38.8328 18.78 38.8328 19.5313C38.8522 19.7906 38.8352 20.0513 38.7825 20.3059L38.5694 21.7215L38.5365 21.9694L38.5036 22.163L38.4862 22.2947V22.4264L38.4804 22.4167Z" fill="#003473"/>
<path fill-rule="evenodd" clip-rule="evenodd" d="M24.3481 19.3067C24.6076 19.3085 24.8666 19.3305 25.1227 19.3725L25.2718 18.4508C24.9755 18.4179 24.5805 18.3694 24.35 18.3694C23.1881 18.3694 22.8202 18.9949 22.8202 19.725C22.8202 20.2014 23.0332 20.5461 23.5948 20.8094C24.0053 21.0031 24.0712 21.0399 24.0712 21.2219C24.0712 21.4678 23.8582 21.6092 23.4631 21.6092C23.1435 21.6089 22.8264 21.5532 22.5259 21.4446L22.4097 22.3489L22.4271 22.3644L22.6208 22.3973C22.7076 22.4188 22.7955 22.4357 22.8841 22.4477C23.13 22.4632 23.3431 22.4806 23.4747 22.4806C24.627 22.4806 25.1053 22.0372 25.1053 21.1638C25.1053 20.6216 24.8419 20.2924 24.3307 20.0619C23.8872 19.8683 23.8369 19.8315 23.8369 19.6514C23.8369 19.4713 24.0305 19.3048 24.3481 19.3048V19.3067Z" fill="#003473"/>
<path fill-rule="evenodd" clip-rule="evenodd" d="M36.3329 17.3915L36.1528 18.443C35.8717 18.2814 35.5552 18.191 35.2311 18.1797C34.4565 18.1797 33.9143 18.9368 33.9143 20.0058C33.9143 20.7474 34.2764 21.1909 34.8825 21.1909C35.1879 21.176 35.4858 21.0919 35.7539 20.945L35.5719 22.0468C35.2785 22.137 34.9743 22.1871 34.6676 22.1959C33.5483 22.1959 32.8569 21.3884 32.8569 20.089C32.8569 18.3617 33.8116 17.1436 35.1807 17.1436C35.3416 17.1414 35.5022 17.1583 35.659 17.194L36.0696 17.2927C36.2013 17.3412 36.2342 17.3586 36.3329 17.3915Z" fill="white"/>
<path fill-rule="evenodd" clip-rule="evenodd" d="M33.0025 18.1216H32.9037C32.5591 18.1216 32.3615 18.2862 32.0478 18.7645L32.1466 18.1545H31.2093L30.5664 22.1049H31.6044C31.982 19.6863 32.0807 19.2738 32.5726 19.2738H32.6384C32.7117 18.8787 32.8421 18.4964 33.0257 18.139L32.9928 18.1216H33.0025Z" fill="white"/>
<path fill-rule="evenodd" clip-rule="evenodd" d="M27.0378 22.0546C26.801 22.142 26.5505 22.1866 26.2981 22.1863C25.7714 22.1863 25.4751 21.89 25.4751 21.3149C25.4782 21.1987 25.4892 21.0829 25.508 20.9682L25.5739 20.5809L25.6223 20.2692L26.0677 17.5697H27.0882L26.972 18.1623H27.4987L27.3671 19.1305H26.8442L26.5653 20.7746C26.5517 20.8283 26.5458 20.8838 26.5479 20.9392C26.5479 21.1329 26.6467 21.22 26.8945 21.22C26.9888 21.2284 27.0837 21.2172 27.1734 21.1871L27.0417 22.0585L27.0378 22.0546Z" fill="white"/>
<path fill-rule="evenodd" clip-rule="evenodd" d="M23.0796 19.4054C23.0796 19.8992 23.3101 20.2439 23.8542 20.5073C24.2822 20.7009 24.348 20.7706 24.348 20.9352C24.348 21.1831 24.166 21.2974 23.7555 21.2974C23.4425 21.2956 23.1317 21.2459 22.8337 21.1502L22.6865 22.0545L22.7349 22.072L22.917 22.1049C23.0081 22.1278 23.1018 22.1388 23.1958 22.1378C23.3813 22.1625 23.5684 22.1735 23.7555 22.1707C24.8418 22.1707 25.3511 21.7583 25.3511 20.8539C25.3511 20.3098 25.1381 19.998 24.6269 19.7521C24.1834 19.5584 24.1331 19.5042 24.1331 19.3241C24.1331 19.1091 24.3151 19.0104 24.6443 19.0104C24.8917 19.0129 25.1386 19.0297 25.3841 19.0607L25.5312 18.1544C25.2322 18.1047 24.9299 18.0775 24.6269 18.0731C23.4747 18.0731 23.0641 18.6812 23.0777 19.4054H23.0796Z" fill="white"/>
<path fill-rule="evenodd" clip-rule="evenodd" d="M44.2066 22.105H43.2383L43.2867 21.7177C43.1692 21.8547 43.0228 21.9641 42.8581 22.0381C42.6935 22.112 42.5145 22.1488 42.334 22.1457C41.5768 22.1457 41.083 21.5047 41.083 20.5171C41.083 19.2003 41.8576 18.081 42.76 18.081C42.9569 18.0822 43.1504 18.1326 43.3229 18.2276C43.4954 18.3227 43.6414 18.4593 43.7476 18.6251L43.978 17.2425H44.9986L44.2085 22.0973L44.2066 22.105ZM42.6922 21.1833C43.1705 21.1833 43.4997 20.6236 43.4997 19.849C43.4997 19.3397 43.3177 19.0744 42.9556 19.0744C42.4947 19.0744 42.15 19.6186 42.15 20.3912C42.15 20.918 42.332 21.1813 42.6922 21.1813V21.1833Z" fill="white"/>
<path fill-rule="evenodd" clip-rule="evenodd" d="M30.2058 22.0217C29.8601 22.1343 29.4985 22.1899 29.1349 22.1863C27.973 22.1863 27.3921 21.5783 27.3921 20.4086C27.3921 19.0531 28.1473 18.0558 29.1853 18.0558C30.0412 18.0558 30.5834 18.6154 30.5834 19.4888C30.5811 19.8216 30.5369 20.1527 30.4517 20.4745H28.4107C28.399 20.512 28.3938 20.5513 28.3952 20.5907C28.3952 21.0515 28.707 21.282 29.2995 21.282C29.6709 21.2892 30.0382 21.204 30.3685 21.0341L30.2058 22.0217ZM29.6249 19.6689V19.4752C29.6333 19.4077 29.6264 19.3391 29.6048 19.2746C29.5832 19.21 29.5474 19.1511 29.5 19.1023C29.4526 19.0534 29.3949 19.0158 29.331 18.9922C29.2672 18.9686 29.1988 18.9596 29.1311 18.9659C28.8019 18.9659 28.5714 19.2119 28.4726 19.6728L29.6249 19.6689Z" fill="white"/>
<path fill-rule="evenodd" clip-rule="evenodd" d="M19.1486 22.103H18.1281L18.7206 18.3694L17.3883 22.103H16.6796L16.5982 18.4023L15.9728 22.103H15.0181L15.8236 17.2501H17.3051L17.3554 20.2614L18.3411 17.2501H19.9542L19.1486 22.103Z" fill="white"/>
<path fill-rule="evenodd" clip-rule="evenodd" d="M21.6992 20.3427C21.6004 20.3427 21.5501 20.3272 21.4687 20.3272C20.8878 20.3272 20.5954 20.5402 20.5954 20.9353C20.5894 20.9854 20.5944 21.0363 20.6101 21.0843C20.6259 21.1323 20.6519 21.1763 20.6864 21.2132C20.7209 21.2501 20.763 21.279 20.8098 21.2979C20.8567 21.3168 20.9071 21.3252 20.9575 21.3226C21.3855 21.3226 21.6818 20.9353 21.6992 20.335V20.3427ZM22.4564 22.1049H21.6004L21.6159 21.6925C21.4868 21.8539 21.3206 21.9816 21.1314 22.0649C20.9423 22.1482 20.7358 22.1845 20.5296 22.1708C19.9718 22.1708 19.5923 21.7428 19.5923 21.0999C19.5923 20.1316 20.2507 19.5701 21.4029 19.5701C21.5172 19.5701 21.6663 19.5875 21.8309 19.603C21.8542 19.5231 21.8653 19.4402 21.8638 19.3571C21.8638 19.0937 21.6818 18.9949 21.2054 18.9949C20.917 18.9914 20.6294 19.0246 20.3495 19.0937L20.2023 19.1421L20.1035 19.1595L20.2507 18.2707C20.6496 18.1436 21.0656 18.0783 21.4842 18.077C22.3731 18.077 22.8514 18.4643 22.8514 19.2389C22.8446 19.5034 22.8167 19.767 22.7681 20.0271L22.5377 21.4272L22.5048 21.6731L22.4893 21.8667L22.4718 22.0158L22.4564 22.1146V22.1049Z" fill="white"/>
<path fill-rule="evenodd" clip-rule="evenodd" d="M37.9867 20.3427C37.8725 20.3427 37.8221 20.3272 37.7563 20.3272C37.1657 20.3272 36.8694 20.5402 36.8694 20.9353C36.865 20.9873 36.872 21.0396 36.8899 21.0886C36.9078 21.1376 36.9362 21.1821 36.973 21.2189C37.0099 21.2558 37.0544 21.2842 37.1034 21.3021C37.1524 21.32 37.2047 21.327 37.2567 21.3226C37.6672 21.3226 37.9809 20.9353 37.9964 20.335L37.9867 20.3427ZM38.7439 22.1049H37.8822L37.8996 21.6925C37.7705 21.8539 37.6043 21.9816 37.4151 22.0649C37.226 22.1482 37.0195 22.1845 36.8132 22.1708C36.2536 22.1708 35.876 21.7428 35.876 21.0999C35.876 20.1316 36.5344 19.5701 37.6847 19.5701C37.8008 19.5701 37.948 19.5875 38.0971 19.603C38.1233 19.5233 38.1395 19.4407 38.1455 19.3571C38.1455 19.0937 37.9654 18.9949 37.4891 18.9949C37.195 18.9915 36.9016 19.0246 36.6157 19.0937L36.484 19.1421L36.3853 19.1595L36.5344 18.2707C36.9333 18.1436 37.3493 18.0783 37.7679 18.077C38.6568 18.077 39.1235 18.4643 39.1235 19.2389C39.1258 19.5039 39.0978 19.7684 39.0402 20.0271L38.8272 21.4272L38.7943 21.6731L38.7613 21.8667L38.7439 22.0158V22.1146V22.1049Z" fill="white"/>
<path fill-rule="evenodd" clip-rule="evenodd" d="M41.509 18.1216H41.4102C41.0636 18.1216 40.8661 18.2862 40.5543 18.7645L40.6531 18.1545H39.7158L39.0903 22.1049H40.1089C40.4962 19.6863 40.5872 19.2738 41.0772 19.2738H41.143C41.2162 18.8787 41.3467 18.4964 41.5303 18.139L41.4974 18.1216H41.509Z" fill="white"/>
</svg>
