<svg width="23" height="23" viewBox="0 0 23 23" fill="none" xmlns="http://www.w3.org/2000/svg">
<path d="M20.1418 21.2398C20.4216 20.925 20.7014 20.6452 21.0162 20.3304C21.226 20.1206 21.4359 19.9107 21.6457 19.7009C22.6251 18.6866 22.6251 17.3924 21.6457 16.4131L18.9176 13.685C18.4629 13.1953 17.9033 12.9505 17.3087 12.9505C16.7141 12.9505 16.1545 13.1953 15.6998 13.685L14.0559 15.2939C13.916 15.2239 13.7411 15.119 13.6012 15.049C13.4263 14.9441 13.2514 14.8742 13.1115 14.7692C11.6425 13.8249 10.2785 12.6007 8.98436 11.0268C8.31981 10.1874 7.9001 9.52281 7.58531 8.78831C8.00503 8.40358 8.42474 7.98386 8.80948 7.59912C8.94938 7.45922 9.08929 7.31931 9.22919 7.17941C9.71886 6.68974 9.99867 6.13013 9.99867 5.53553C9.99867 4.94094 9.75383 4.38132 9.22919 3.89165L7.86512 2.52758C7.69024 2.3527 7.55034 2.2128 7.41043 2.07289C7.09565 1.75811 6.78086 1.44332 6.50105 1.16351C6.04636 0.708822 5.48674 0.463989 4.89215 0.463989C4.29755 0.463989 3.77291 0.708822 3.28325 1.16351L1.56941 2.87734C0.939842 3.50691 0.590081 4.24141 0.520129 5.11582C0.4152 6.20008 0.625057 7.35429 1.1497 8.75334C1.95415 10.9219 3.14334 12.9155 4.92712 15.084C7.09564 17.6723 9.71886 19.7359 12.6918 21.1699C13.8111 21.6945 15.35 22.3591 17.0289 22.464C17.1338 22.464 17.2387 22.464 17.3437 22.464C18.4629 22.429 19.3723 22.0443 20.1418 21.2398ZM19.3023 20.5053C18.7777 21.0649 18.1481 21.3448 17.3437 21.3448C17.2737 21.3448 17.1688 21.3448 17.0988 21.3448C15.5948 21.2398 14.1958 20.6802 13.1815 20.1556C10.3484 18.7915 7.86512 16.8328 5.80153 14.3845C4.0877 12.3209 2.93348 10.3972 2.16401 8.3686C1.70932 7.14443 1.53444 6.13013 1.60439 5.18577C1.67434 4.59117 1.8842 4.06653 2.33889 3.64682L4.01774 1.96796C4.29755 1.72313 4.57736 1.58323 4.85717 1.58323C5.13698 1.58323 5.41679 1.72313 5.6966 1.96796C6.01138 2.24777 6.29119 2.56256 6.60598 2.87734C6.74588 3.05222 6.92076 3.19213 7.09564 3.36701L8.45972 4.73108C8.73952 5.01089 8.87943 5.2907 8.87943 5.57051C8.87943 5.85032 8.73952 6.13013 8.45972 6.40993C8.31981 6.54984 8.17991 6.68974 8.04 6.82965C7.62029 7.24936 7.23555 7.66908 6.78086 8.05381C6.78086 8.05381 6.78086 8.05381 6.74588 8.08879C6.36115 8.47353 6.4311 8.82329 6.50105 9.1031V9.13807C6.85081 9.9775 7.34048 10.782 8.10995 11.7263C9.47402 13.4052 10.908 14.7343 12.5169 15.7136C12.7268 15.8535 12.9367 15.9584 13.1115 16.0284C13.2864 16.1333 13.4613 16.2033 13.6012 16.3082L13.6362 16.3432C13.7761 16.4131 13.916 16.4481 14.0909 16.4481C14.4406 16.4481 14.6855 16.2033 14.7554 16.1333L16.4693 14.4195C16.7491 14.1397 17.0289 13.9998 17.3087 13.9998C17.6584 13.9998 17.9383 14.2096 18.1131 14.4195L20.8762 17.1826C21.4359 17.7422 21.4359 18.3368 20.8762 18.8964C20.6664 19.1063 20.4915 19.2812 20.2817 19.491C19.9319 19.8058 19.5821 20.1556 19.3023 20.5053Z" fill="#58C3F0"/>
</svg>
