<svg width="25" height="26" viewBox="0 0 25 26" fill="none" xmlns="http://www.w3.org/2000/svg">
<g clip-path="url(#clip0_376_1186)">
<path d="M20.1418 21.7239C20.4216 21.4087 20.7014 21.1286 21.0162 20.8135C21.226 20.6034 21.4359 20.3933 21.6457 20.1832C22.6251 19.1678 22.6251 17.8723 21.6457 16.8919L18.9176 14.1608C18.4629 13.6706 17.9033 13.4255 17.3087 13.4255C16.7141 13.4255 16.1545 13.6706 15.6998 14.1608L14.0559 15.7715C13.916 15.7014 13.7411 15.5964 13.6012 15.5264C13.4263 15.4213 13.2514 15.3513 13.1115 15.2463C11.6425 14.3009 10.2785 13.0754 8.98436 11.4998C8.31981 10.6594 7.9001 9.99416 7.58531 9.25887C8.00503 8.87372 8.42474 8.45355 8.80948 8.06839C8.94938 7.92834 9.08929 7.78828 9.22919 7.64823C9.71886 7.15803 9.99867 6.59781 9.99867 6.00257C9.99867 5.40733 9.75383 4.84711 9.22919 4.35691L7.86512 2.99136C7.69024 2.81629 7.55034 2.67624 7.41043 2.53618C7.09565 2.22106 6.78086 1.90593 6.50105 1.62582C6.04636 1.17064 5.48674 0.925537 4.89215 0.925537C4.29755 0.925537 3.77291 1.17064 3.28325 1.62582L1.56941 3.3415C0.939842 3.97176 0.590081 4.70705 0.520129 5.5824C0.4152 6.66783 0.625057 7.8233 1.1497 9.22386C1.95415 11.3947 3.14334 13.3905 4.92712 15.5614C7.09564 18.1524 9.71886 20.2183 12.6918 21.6538C13.8111 22.179 15.35 22.8443 17.0289 22.9493C17.1338 22.9493 17.2387 22.9493 17.3437 22.9493C18.4629 22.9143 19.3723 22.5292 20.1418 21.7239ZM19.3023 20.9886C18.7777 21.5488 18.1481 21.8289 17.3437 21.8289C17.2737 21.8289 17.1688 21.8289 17.0988 21.8289C15.5948 21.7239 14.1958 21.1636 13.1815 20.6384C10.3484 19.2729 7.86512 17.3121 5.80153 14.8611C4.0877 12.7953 2.93348 10.8695 2.16401 8.8387C1.70932 7.61321 1.53444 6.59781 1.60439 5.65243C1.67434 5.05719 1.8842 4.53198 2.33889 4.11181L4.01774 2.43114C4.29755 2.18604 4.57736 2.04598 4.85717 2.04598C5.13698 2.04598 5.41679 2.18604 5.6966 2.43114C6.01138 2.71125 6.29119 3.02638 6.60598 3.3415C6.74588 3.51657 6.92076 3.65663 7.09564 3.8317L8.45972 5.19725C8.73952 5.47736 8.87943 5.75747 8.87943 6.03758C8.87943 6.31769 8.73952 6.59781 8.45972 6.87792C8.31981 7.01797 8.17991 7.15803 8.04 7.29809C7.62029 7.71825 7.23555 8.13842 6.78086 8.52358C6.78086 8.52358 6.78086 8.52358 6.74588 8.55859C6.36115 8.94374 6.4311 9.29388 6.50105 9.574V9.60901C6.85081 10.4493 7.34048 11.2547 8.10995 12.2C9.47402 13.8807 10.908 15.2113 12.5169 16.1916C12.7268 16.3317 12.9367 16.4367 13.1115 16.5068C13.2864 16.6118 13.4613 16.6818 13.6012 16.7869L13.6362 16.8219C13.7761 16.8919 13.916 16.9269 14.0909 16.9269C14.4406 16.9269 14.6855 16.6818 14.7554 16.6118L16.4693 14.8961C16.7491 14.616 17.0289 14.476 17.3087 14.476C17.6584 14.476 17.9383 14.686 18.1131 14.8961L20.8762 17.6622C21.4359 18.2225 21.4359 18.8177 20.8762 19.3779C20.6664 19.588 20.4915 19.7631 20.2817 19.9732C19.9319 20.2883 19.5821 20.6384 19.3023 20.9886Z" fill="#478DCB"/>
</g>
<defs>
<clipPath id="clip0_376_1186">
<rect width="25" height="25.0271" fill="white" transform="translate(0 0.461029)"/>
</clipPath>
</defs>
</svg>
