<svg width="16" height="14" viewBox="0 0 16 14" fill="none" xmlns="http://www.w3.org/2000/svg">
<path id="Twitter" fill-rule="evenodd" clip-rule="evenodd" d="M16 1.53902C15.4114 1.80004 14.7782 1.97671 14.1146 2.05587C14.7924 1.6497 15.3134 1.00672 15.5582 0.239897C14.9247 0.615996 14.2222 0.889538 13.4741 1.03679C12.8748 0.398366 12.0214 0 11.0777 0C9.26465 0 7.79487 1.46994 7.79487 3.28266C7.79487 3.54027 7.82364 3.79025 7.87955 4.03031C5.15129 3.89394 2.73298 2.58718 1.11351 0.600393C0.831676 1.08588 0.669632 1.6497 0.669632 2.25123C0.669632 3.38977 1.2489 4.39519 2.12917 4.98307C1.59168 4.96698 1.08523 4.8181 0.642814 4.57235V4.6138C0.642814 6.20417 1.77436 7.53124 3.27567 7.83274C3.0005 7.90751 2.70957 7.94863 2.411 7.94863C2.19971 7.94863 1.99345 7.92733 1.79289 7.88881C2.21076 9.19313 3.42276 10.142 4.85906 10.1691C3.73645 11.0491 2.32144 11.5744 0.782429 11.5744C0.517664 11.5744 0.256801 11.5585 0 11.5284C1.45222 12.4587 3.17783 13.0026 5.03248 13.0026C11.0702 13.0026 14.3716 8.00145 14.3716 3.66298C14.3716 3.52126 14.3682 3.37953 14.3628 3.2378C15.003 2.77556 15.5589 2.19759 16 1.53902Z" fill="#58C3F0"/>
</svg>
