<svg width="16" height="14" viewBox="0 0 16 14" fill="none" xmlns="http://www.w3.org/2000/svg">
<path id="Twitter" fill-rule="evenodd" clip-rule="evenodd" d="M16 1.5764C15.4114 1.83771 14.7782 2.01457 14.1146 2.09381C14.7924 1.68721 15.3134 1.04353 15.5582 0.275878C14.9247 0.652384 14.2222 0.926221 13.4741 1.07363C12.8748 0.434518 12.0214 0.0357208 11.0777 0.0357208C9.26465 0.0357208 7.79487 1.50725 7.79487 3.32193C7.79487 3.57982 7.82364 3.83007 7.87955 4.07039C5.15129 3.93388 2.73298 2.62571 1.11351 0.636764C0.831676 1.12277 0.669632 1.68721 0.669632 2.28939C0.669632 3.42916 1.2489 4.43567 2.12917 5.02418C1.59168 5.00807 1.08523 4.85903 0.642814 4.61302V4.65451C0.642814 6.24661 1.77436 7.57512 3.27567 7.87694C3.0005 7.95178 2.70957 7.99295 2.411 7.99295C2.19971 7.99295 1.99345 7.97163 1.79289 7.93307C2.21076 9.2388 3.42276 10.1887 4.85906 10.2159C3.73645 11.0968 2.32144 11.6226 0.782429 11.6226C0.517664 11.6226 0.256801 11.6067 0 11.5766C1.45222 12.5079 3.17783 13.0524 5.03248 13.0524C11.0702 13.0524 14.3716 8.04583 14.3716 3.70267C14.3716 3.56079 14.3682 3.41891 14.3628 3.27702C15.003 2.81428 15.5589 2.23569 16 1.5764Z" fill="#2C2D2E"/>
</svg>
