<svg width="24" height="25" viewBox="0 0 24 25" fill="none" xmlns="http://www.w3.org/2000/svg">
<g clip-path="url(#clip0_376_1225)">
<path d="M12 0.872028C9.81196 0.872028 7.71354 1.74216 6.16637 3.29101C4.61919 4.83986 3.75 6.94055 3.75 9.13096C3.75 13.4932 11.1 22.7206 11.415 23.1186C11.4853 23.2063 11.5743 23.277 11.6756 23.3257C11.7768 23.3743 11.8877 23.3995 12 23.3995C12.1123 23.3995 12.2232 23.3743 12.3244 23.3257C12.4257 23.277 12.5147 23.2063 12.585 23.1186C12.9 22.7206 20.25 13.4932 20.25 9.13096C20.25 6.94055 19.3808 4.83986 17.8336 3.29101C16.2865 1.74216 14.188 0.872028 12 0.872028ZM12 21.4293C9.6825 18.426 5.25 12.0441 5.25 9.13096C5.25 7.33881 5.96116 5.62006 7.22703 4.35282C8.4929 3.08558 10.2098 2.37365 12 2.37365C13.7902 2.37365 15.5071 3.08558 16.773 4.35282C18.0388 5.62006 18.75 7.33881 18.75 9.13096C18.75 12.0441 14.3175 18.411 12 21.4293ZM12 5.3769C11.2583 5.3769 10.5333 5.59707 9.91661 6.00957C9.29993 6.42207 8.81928 7.00838 8.53545 7.69434C8.25162 8.38031 8.17736 9.13512 8.32205 9.86334C8.46675 10.5916 8.8239 11.2605 9.34835 11.7855C9.8728 12.3105 10.541 12.668 11.2684 12.8129C11.9958 12.9577 12.7498 12.8834 13.4351 12.5993C14.1203 12.3151 14.706 11.834 15.118 11.2166C15.5301 10.5992 15.75 9.87344 15.75 9.13096C15.75 8.13532 15.3549 7.18046 14.6517 6.47644C13.9484 5.77241 12.9946 5.3769 12 5.3769ZM12 11.3834C11.555 11.3834 11.12 11.2513 10.75 11.0038C10.38 10.7563 10.0916 10.4045 9.92127 9.99293C9.75097 9.58135 9.70642 9.12846 9.79323 8.69153C9.88005 8.2546 10.0943 7.85325 10.409 7.53824C10.7237 7.22324 11.1246 7.00871 11.561 6.9218C11.9975 6.83489 12.4499 6.8795 12.861 7.04998C13.2722 7.22046 13.6236 7.50916 13.8708 7.87957C14.118 8.24998 14.25 8.68547 14.25 9.13096C14.25 9.72834 14.0129 10.3013 13.591 10.7237C13.169 11.1461 12.5967 11.3834 12 11.3834Z" fill="#478DCB"/>
</g>
<defs>
<clipPath id="clip0_376_1225">
<rect width="24" height="24.026" fill="white" transform="translate(0 0.121216)"/>
</clipPath>
</defs>
</svg>
