<svg width="60" height="40" viewBox="0 0 60 40" fill="none" xmlns="http://www.w3.org/2000/svg">
<rect x="0.5" y="0.5" width="59" height="39" rx="3.5" fill="white" stroke="#F8F9FA"/>
<path d="M21.3586 14.2303L18.1874 22.7859L17.8485 21.0476C17.0202 18.8243 15.4293 16.9673 13.3594 15.8075L16.2608 26.7646H19.6893L24.7913 14.2303H21.3586Z" fill="#0058A0"/>
<path d="M24.0781 26.7689L26.1051 14.2199H29.3475L27.3184 26.7689H24.0781Z" fill="#0058A0"/>
<path d="M39.0741 14.5232C38.1492 14.1705 37.1667 13.9931 36.1769 14.0002C32.9701 14.0002 30.7172 15.703 30.6963 18.14C30.6774 19.9473 32.307 20.9514 33.5349 21.5539C34.79 22.1689 35.2209 22.5621 35.2084 23.1123C35.1979 23.949 34.198 24.3318 33.2672 24.3318C32.2135 24.3655 31.1676 24.1399 30.2214 23.675L29.8031 23.4784L29.3491 26.2856C30.1064 26.6391 31.5058 26.9383 32.9617 26.9571C36.3631 26.9571 38.5763 25.2711 38.6097 22.6667C38.6223 21.238 37.7563 20.1565 35.8903 19.257C34.7628 18.6755 34.06 18.2906 34.0725 17.7007C34.0725 17.1798 34.6582 16.6234 35.9322 16.6234C36.7661 16.6008 37.5945 16.7652 38.3566 17.1045L38.6453 17.2509L39.0867 14.5315" fill="#0058A0"/>
<path d="M47.381 14.2303H44.8708C44.0947 14.2303 43.5132 14.4562 43.1701 15.2762L38.3589 26.7814H41.7644C41.7644 26.7814 42.3208 25.2376 42.4464 24.8987H46.5945C46.6949 25.338 46.9899 26.7814 46.9899 26.7814H50L47.381 14.2303ZM43.3856 22.3195C43.6575 21.5999 44.6784 18.8135 44.6784 18.8135C44.6574 18.847 44.9419 18.0835 45.1093 17.6149L45.3185 18.6985L46.0694 22.3195H43.3856Z" fill="#0058A0"/>
<path d="M15.2464 14.2261H10.0293L10 14.4353C14.0624 15.4812 16.7441 18.0291 17.8591 21.0435L16.7232 15.2846C16.514 14.4855 15.9492 14.2554 15.2464 14.2261Z" fill="#FAA61A"/>
</svg>
