<svg width="24" height="25" viewBox="0 0 24 25" fill="none" xmlns="http://www.w3.org/2000/svg">
<path d="M16.2335 17.2998C15.0191 18.5155 11.9327 17.3959 9.34075 14.8011C6.74875 12.2063 5.63035 9.11654 6.84475 7.90083L8.10235 6.64187C8.32315 6.42083 8.67835 6.42083 8.89915 6.64187L10.1855 7.92966C10.4063 8.1507 10.4063 8.50628 10.1855 8.72732L9.31195 9.60187C8.63515 10.2794 9.23035 11.9949 10.6703 13.4412C12.1103 14.8876 13.8623 15.5123 14.5391 14.8347L15.4079 13.9602C15.6287 13.7391 15.9839 13.7391 16.2047 13.9602L17.4911 15.248C17.7119 15.469 17.7119 15.8246 17.4911 16.0456L16.2335 17.2998Z" fill="#478DCB"/>
<path d="M15.7247 16.7904C15.6959 16.8145 15.5423 16.9394 15.6431 16.8673C15.7487 16.7952 15.5711 16.9106 15.5471 16.925C15.5135 16.9442 15.4415 16.9971 15.3983 16.9971C15.4751 16.9971 15.5327 16.9538 15.4511 16.973C15.4079 16.9826 15.3695 17.0019 15.3311 17.0115C15.2735 17.0259 15.2159 17.0403 15.1583 17.0499C14.9567 17.0932 15.2687 17.0499 15.1007 17.0595C14.9471 17.0691 14.7935 17.0739 14.6351 17.0643C14.5679 17.0595 14.4959 17.0499 14.4287 17.0451C14.6303 17.0643 14.3711 17.0307 14.3231 17.0211C14.1503 16.9874 13.9823 16.9442 13.8143 16.8913C13.6463 16.8385 13.4783 16.7808 13.3103 16.7184C13.2719 16.7039 13.2287 16.6847 13.1903 16.6703C13.3151 16.7232 13.1807 16.6655 13.1471 16.6511C13.0415 16.603 12.9407 16.555 12.8399 16.5069C12.0383 16.1081 11.2991 15.5987 10.6607 15.051C10.2671 14.7146 9.89754 14.359 9.54234 13.9842C9.22554 13.6478 8.87514 13.2394 8.63994 12.9223C8.37594 12.5619 8.12634 12.1919 7.90554 11.8026C7.80474 11.6297 7.70874 11.4471 7.62234 11.2693C7.58394 11.1876 7.54074 11.1059 7.50714 11.0194C7.51194 11.029 7.42074 10.8272 7.46394 10.9233C7.49754 11.005 7.43034 10.8416 7.42554 10.8272C7.29114 10.4908 7.18554 10.1448 7.11834 9.78927C7.10874 9.7268 7.07994 9.5442 7.09914 9.71238C7.08954 9.6355 7.07994 9.55862 7.07514 9.47693C7.06554 9.32316 7.07994 9.1694 7.07994 9.01563C7.07994 8.94836 7.05114 8.94355 7.07034 9.06849C7.06554 9.04927 7.07994 9.00121 7.08474 8.98199C7.09914 8.91953 7.11354 8.85225 7.13274 8.78979C7.14234 8.76095 7.15194 8.73693 7.15674 8.7081C7.19514 8.56875 7.15194 8.75134 7.13754 8.74173C7.12794 8.73693 7.22394 8.56875 7.23354 8.55914C7.24794 8.53511 7.26714 8.51589 7.27674 8.49186C7.31994 8.41018 7.24314 8.50147 7.23834 8.53992C7.24794 8.50147 7.31994 8.44381 7.34874 8.41979C7.38234 8.38615 7.41114 8.35732 7.44474 8.32368C7.79034 7.97771 8.13594 7.63173 8.47674 7.29057C8.49594 7.27135 8.59194 7.19927 8.59674 7.17044C8.59674 7.17044 8.52954 7.19927 8.50074 7.21368C8.54874 7.19446 8.61594 7.20888 8.49114 7.20888C8.41434 7.19446 8.39994 7.18966 8.45274 7.20407C8.50074 7.21849 8.49114 7.21368 8.42394 7.19446C8.41914 7.17044 8.36634 7.14161 8.44314 7.22329C8.51034 7.29537 8.58714 7.36745 8.65434 7.43472C8.84154 7.62212 9.03354 7.81433 9.22074 8.00173C9.35034 8.13147 9.48474 8.31888 9.63354 8.41498C9.63354 8.41498 9.65754 8.44381 9.66234 8.44381C9.63834 8.44862 9.61434 8.34771 9.61434 8.3429C9.63354 8.38135 9.62874 8.46784 9.61914 8.33329C9.61434 8.28524 9.66714 8.21316 9.61434 8.32368C9.60954 8.33329 9.64794 8.21316 9.66234 8.22277C9.65754 8.22277 9.62874 8.25641 9.62394 8.26121C9.44154 8.41979 9.27834 8.60719 9.11034 8.77537C8.98554 8.90031 8.85114 9.02044 8.73594 9.15498C8.46714 9.46251 8.34234 9.82771 8.30874 10.2313C8.23674 11.0146 8.59194 11.8363 8.99034 12.4898C9.53274 13.3884 10.2719 14.1524 11.1119 14.7771C12.2111 15.5939 13.9823 16.406 15.1295 15.2528C15.3119 15.0702 15.4991 14.8828 15.6815 14.7002C15.7439 14.6377 15.8111 14.58 15.8687 14.5128C15.8687 14.5128 15.9071 14.4791 15.9071 14.4743C15.9119 14.4935 15.8111 14.5224 15.8063 14.5224C15.9023 14.4791 15.8207 14.4984 15.7631 14.5128C15.7535 14.5128 15.7391 14.508 15.7295 14.508C15.8111 14.532 15.8111 14.532 15.7295 14.508C15.7295 14.5032 15.6863 14.4791 15.6863 14.4791C15.6863 14.4791 15.7103 14.5032 15.7151 14.508C15.7583 14.5752 15.8399 14.6329 15.8927 14.6858C16.0751 14.8684 16.2623 15.0558 16.4447 15.2384C16.6031 15.3969 16.7519 15.5603 16.9151 15.7093C16.9775 15.7669 16.9679 15.7861 16.9295 15.69C16.8959 15.6084 16.9247 15.8342 16.9247 15.6516C16.9247 15.6035 16.9727 15.5363 16.9199 15.642C16.9343 15.6084 16.9775 15.5507 16.9583 15.5507C16.9295 15.5507 16.8623 15.6468 16.8431 15.666C16.7567 15.7525 16.6703 15.839 16.5887 15.9207C16.3919 16.1177 16.1999 16.3099 16.0031 16.5069C15.9215 16.5982 15.8207 16.6943 15.7247 16.7904C15.4511 17.0643 15.4511 17.5352 15.7247 17.8091C15.9983 18.083 16.4687 18.083 16.7423 17.8091C17.0591 17.492 17.3759 17.1748 17.6927 16.8577C17.8079 16.7424 17.9327 16.6271 18.0431 16.5021C18.4943 15.9832 18.4655 15.2335 17.9999 14.7338C17.6927 14.4071 17.3663 14.0995 17.0495 13.7824C16.9391 13.6719 16.8335 13.5565 16.7183 13.4508C16.2191 12.9895 15.4703 12.9511 14.9519 13.4076C14.6303 13.6911 14.3327 14.013 14.0351 14.3206C14.0111 14.3446 13.9103 14.4119 14.0111 14.3494C14.1215 14.2773 13.9967 14.3542 13.9823 14.359C13.8863 14.3974 14.0447 14.3638 14.0399 14.3398C14.0399 14.3446 13.8383 14.4071 13.8335 14.3974C13.8287 14.3878 14.0303 14.3878 13.8863 14.3878C13.8383 14.3878 13.7903 14.3926 13.7423 14.3926C13.7087 14.3926 13.6751 14.3926 13.6415 14.3878C13.6271 14.3878 13.4639 14.3638 13.5791 14.383C13.7039 14.4022 13.5215 14.3686 13.5119 14.3686C13.4735 14.359 13.4351 14.3542 13.4015 14.3446C13.3055 14.3206 13.2095 14.2917 13.1135 14.2581C13.0751 14.2437 13.0319 14.2293 12.9935 14.2148C12.7967 14.1428 13.1135 14.2773 12.9215 14.186C12.7295 14.0947 12.5423 13.9938 12.3599 13.8833C12.1631 13.7632 11.9279 13.5998 11.8031 13.5037C11.3855 13.1721 11.0159 12.7925 10.6703 12.3841C10.5791 12.2784 10.4351 12.0717 10.3199 11.8987C10.1903 11.6969 10.0751 11.4903 9.97434 11.2741C9.95514 11.2356 9.93594 11.1924 9.92154 11.1539C9.97434 11.2789 9.92154 11.1491 9.91194 11.1155C9.88314 11.029 9.84954 10.9425 9.82554 10.856C9.80154 10.7743 9.78714 10.6878 9.76794 10.6061C9.75834 10.5581 9.75354 10.4332 9.76794 10.611C9.76314 10.5581 9.75834 10.51 9.75834 10.4572C9.75834 10.3851 9.76794 10.313 9.76314 10.241C9.75834 10.1497 9.70554 10.4091 9.76314 10.2746C9.77274 10.2506 9.77754 10.2121 9.78714 10.1929C9.83034 10.0055 9.72954 10.289 9.80634 10.1545C9.88314 10.0199 9.69114 10.2554 9.83034 10.1208C9.98394 9.97186 10.1327 9.8181 10.2815 9.66914C10.4207 9.52979 10.5695 9.39524 10.7039 9.24628C11.1695 8.74654 11.2031 7.99693 10.7471 7.47797C10.4495 7.1368 10.1039 6.82927 9.78234 6.50732C9.66234 6.38719 9.54714 6.26226 9.42234 6.14693C8.98074 5.73368 8.31354 5.63758 7.79994 5.98836C7.39194 6.26706 7.06074 6.68992 6.71514 7.03589C6.34554 7.40589 6.00954 7.75186 5.81754 8.2516C5.56314 8.91953 5.62554 9.68836 5.78394 10.3755C5.98074 11.2308 6.37434 12.0477 6.83034 12.7925C7.93434 14.5993 9.51354 16.1802 11.3087 17.2998C12.0479 17.7611 12.8591 18.1551 13.7039 18.3665C14.3903 18.5395 15.1679 18.6164 15.8495 18.3761C16.1903 18.256 16.4927 18.0782 16.7567 17.8235C17.0351 17.5545 17.0303 17.0787 16.7567 16.8048C16.4639 16.5117 16.0031 16.5213 15.7247 16.7904Z" fill="#478DCB"/>
<path d="M5.05907 20.1493C6.85907 21.807 9.13427 22.8258 11.5727 23.0516C13.6751 23.2486 15.8207 22.7969 17.6783 21.807C21.2975 19.885 23.5871 15.9543 23.4767 11.8555C23.3759 7.7903 20.9423 3.97498 17.2559 2.2355C15.3983 1.35615 13.3055 0.986151 11.2607 1.24083C9.18227 1.4955 7.25747 2.30758 5.62547 3.6194C2.22227 6.34394 0.787066 11.0386 2.01587 15.2143C2.19827 15.8342 2.44307 16.4396 2.72627 17.0211C2.72627 16.7808 2.72627 16.5358 2.72627 16.2955C2.10707 17.4872 1.48787 18.6741 0.868666 19.8658C0.777466 20.0387 0.691066 20.2069 0.599866 20.3799C0.311866 20.9373 0.787066 21.5956 1.41107 21.437C2.67827 21.1151 3.95027 20.7932 5.21747 20.4712C5.39507 20.428 5.57747 20.3799 5.75507 20.3367C6.13427 20.2406 6.35987 19.8177 6.25907 19.4477C6.15347 19.0633 5.75027 18.8471 5.37107 18.9432C4.10387 19.2651 2.83187 19.587 1.56467 19.909C1.38707 19.9522 1.20467 20.0003 1.02707 20.0435C1.29587 20.3943 1.56947 20.7499 1.83827 21.1007C2.39987 20.0435 2.95187 18.9816 3.50387 17.9148C3.62867 17.6794 3.74867 17.4439 3.87347 17.2085C3.90227 17.1556 3.93107 17.098 3.95987 17.0451C3.97907 17.0067 3.98867 16.9874 4.00787 16.9394C4.13747 16.6174 3.99827 16.3628 3.86387 16.0745C3.30707 14.878 3.01427 13.4797 3.01427 12.1294C3.01427 11.8507 3.02387 11.5672 3.04787 11.2885C3.05747 11.1539 3.07187 11.0242 3.08627 10.8897C3.09107 10.856 3.09587 10.8224 3.10067 10.7887C3.10067 10.7984 3.08627 10.9041 3.09587 10.8176C3.10547 10.7407 3.11987 10.6638 3.12947 10.5917C3.22067 10.0487 3.35987 9.51056 3.53747 8.9868C3.58067 8.86667 3.62387 8.74654 3.66707 8.62641C3.69107 8.56875 3.71507 8.50628 3.73907 8.44862C3.76787 8.37173 3.73427 8.46303 3.72947 8.47264C3.74387 8.4342 3.76307 8.39576 3.78227 8.35732C3.88787 8.11706 4.00787 7.8768 4.13267 7.64134C4.38227 7.17524 4.67027 6.73316 4.98707 6.31511C5.03507 6.24784 4.97747 6.32472 4.97267 6.33433C4.99187 6.3103 5.01107 6.28628 5.03027 6.26225C5.06867 6.2142 5.10707 6.16615 5.15027 6.11329C5.23667 6.00758 5.32787 5.90667 5.41907 5.80095C5.59187 5.60394 5.77427 5.41654 5.96627 5.23394C6.16307 5.04654 6.36947 4.86394 6.58067 4.69095C6.62867 4.65251 6.67667 4.61407 6.72947 4.57082C6.79187 4.51797 6.71507 4.58044 6.71027 4.58524C6.73427 4.56602 6.75827 4.5468 6.78707 4.52758C6.89747 4.44589 7.00787 4.3642 7.11827 4.28732C7.55507 3.9894 8.01107 3.72511 8.48627 3.49446C8.60147 3.4416 8.71667 3.38875 8.83187 3.33589C8.95667 3.27823 8.76467 3.35992 8.89427 3.31186C8.96147 3.28303 9.03347 3.25901 9.10067 3.23018C9.35027 3.13407 9.60467 3.04758 9.86387 2.9755C10.1231 2.89862 10.3871 2.83615 10.6511 2.77849C10.7903 2.74966 10.9295 2.72563 11.0687 2.70161C11.1359 2.69199 11.1983 2.68238 11.2655 2.67277C11.1311 2.69199 11.3231 2.66797 11.3711 2.65836C11.9279 2.59589 12.4895 2.57667 13.0463 2.6055C13.3247 2.61992 13.5983 2.64394 13.8767 2.67758C13.7519 2.66316 13.9007 2.68238 13.9439 2.68719C14.0111 2.6968 14.0735 2.70641 14.1359 2.72083C14.2751 2.74485 14.4143 2.77368 14.5535 2.80251C15.0767 2.91784 15.5951 3.07641 16.0943 3.27342C16.1231 3.28303 16.2767 3.3455 16.2143 3.32147C16.1519 3.29745 16.3055 3.35992 16.3343 3.37433C16.4687 3.4368 16.6031 3.49927 16.7375 3.56654C16.9727 3.68667 17.2031 3.8116 17.4335 3.94615C17.6591 4.0807 17.8799 4.22485 18.0959 4.37862C18.1487 4.41706 18.1967 4.4507 18.2495 4.48914C18.2735 4.50836 18.4031 4.60446 18.3503 4.56602C18.2975 4.52758 18.4271 4.62849 18.4511 4.64771C18.5087 4.69576 18.5663 4.73901 18.6191 4.78706C19.0175 5.12342 19.3967 5.49342 19.7375 5.88745C19.8191 5.98355 19.9007 6.07966 19.9823 6.17576C20.0207 6.22381 20.0591 6.27186 20.1023 6.32472C20.0207 6.22381 20.1359 6.37277 20.1599 6.40641C20.3183 6.61784 20.4623 6.83407 20.6015 7.05991C20.7455 7.29056 20.8847 7.53082 21.0095 7.77589C21.0671 7.89121 21.1247 8.00173 21.1775 8.11706C21.2063 8.17472 21.2303 8.23238 21.2591 8.29004C21.2735 8.31887 21.2831 8.34771 21.2975 8.37654C21.3023 8.39095 21.3551 8.51108 21.3215 8.43901C21.2975 8.37654 21.3599 8.53511 21.3695 8.55913C21.3935 8.6168 21.4175 8.67926 21.4367 8.73693C21.4847 8.86667 21.5327 9.00121 21.5759 9.13095C21.6575 9.38563 21.7343 9.64511 21.7967 9.90939C21.8591 10.1737 21.9119 10.4428 21.9551 10.7119C21.9599 10.7551 21.9839 10.9089 21.9647 10.7791C21.9743 10.8464 21.9791 10.9089 21.9887 10.9761C22.0031 11.1203 22.0175 11.2645 22.0271 11.4086C22.0655 11.9804 22.0559 12.5522 22.0031 13.1241C21.9983 13.1913 21.9887 13.2538 21.9839 13.3211C21.9791 13.3691 21.9551 13.5181 21.9743 13.3932C21.9551 13.5325 21.9311 13.6767 21.9071 13.816C21.8591 14.0851 21.7967 14.3494 21.7247 14.6089C21.6527 14.8684 21.5759 15.123 21.4847 15.3777C21.4415 15.4978 21.3935 15.618 21.3503 15.7381C21.3407 15.7669 21.3263 15.7958 21.3119 15.8294C21.3167 15.8198 21.3551 15.7285 21.3215 15.8054C21.2927 15.8726 21.2639 15.9399 21.2303 16.0072C21.0095 16.4877 20.7551 16.9538 20.4623 17.3911C20.3951 17.4968 20.3231 17.6025 20.2463 17.7034C20.2079 17.7563 20.1743 17.8043 20.1359 17.8572C20.1167 17.8812 20.0975 17.9052 20.0783 17.9341C20.0111 18.0206 20.1455 17.8524 20.0735 17.9389C19.9055 18.1551 19.7279 18.3617 19.5407 18.5635C19.1855 18.948 18.8015 19.3035 18.3887 19.6351C18.3647 19.6543 18.3407 19.6735 18.3167 19.6928C18.3263 19.688 18.4031 19.6255 18.3359 19.6783C18.2831 19.7168 18.2351 19.7552 18.1823 19.7889C18.0719 19.8706 17.9615 19.9474 17.8463 20.0243C17.6255 20.1733 17.4047 20.3078 17.1743 20.4376C16.9439 20.5673 16.7087 20.6874 16.4687 20.798C16.4111 20.8268 16.3535 20.8508 16.2959 20.8748C16.2575 20.8941 16.1183 20.9469 16.2335 20.9037C16.1039 20.9565 15.9743 21.0046 15.8447 21.0526C15.3263 21.24 14.7935 21.389 14.2559 21.4899C14.1263 21.5139 13.9967 21.5332 13.8671 21.5572C13.7279 21.5812 13.9391 21.5524 13.7951 21.5668C13.7183 21.5764 13.6415 21.586 13.5647 21.5908C13.2863 21.6196 13.0079 21.6341 12.7295 21.6389C12.4079 21.6437 12.0863 21.6389 11.7695 21.6148C11.6111 21.6052 11.4527 21.586 11.2991 21.5716C11.2127 21.562 11.2799 21.5716 11.2943 21.5716C11.2559 21.5668 11.2175 21.562 11.1791 21.5524C11.0879 21.538 11.0015 21.5235 10.9103 21.5091C9.60947 21.2785 8.54387 20.8652 7.44467 20.1733C7.19027 20.0147 6.94547 19.8417 6.70547 19.6591C6.63827 19.6111 6.69107 19.6447 6.70547 19.6591C6.67667 19.6351 6.64787 19.6111 6.61907 19.5871C6.56147 19.539 6.50387 19.4909 6.44627 19.4429C6.32147 19.3372 6.20147 19.2315 6.08147 19.1209C5.79347 18.8567 5.34707 18.8374 5.06387 19.1209C4.79507 19.3996 4.77107 19.885 5.05907 20.1493Z" fill="#478DCB"/>
</svg>
