<svg width="14" height="17" viewBox="0 0 14 17" fill="none" xmlns="http://www.w3.org/2000/svg">
<path id="Youtube" fill-rule="evenodd" clip-rule="evenodd" d="M3.25462 6.02235V3.59711C3.17382 3.16704 2.99402 2.53776 2.70702 1.70265C2.61138 1.42111 2.51358 1.1388 2.41581 0.856575L2.4158 0.856556L2.41577 0.856449C2.32075 0.582164 2.22576 0.307963 2.13281 0.0346375H3.07562L3.71122 2.38579L4.32243 0.0346375H5.22783L4.15043 3.59711V6.02235H3.25462ZM9.80094 5.53539C9.47914 5.90479 9.17254 6.08419 8.87834 6.08419C8.61794 6.08419 8.43853 5.97827 8.35813 5.75203C8.31353 5.61728 8.28613 5.40325 8.28613 5.08871V1.56027H9.09134V4.84524C9.09134 5.03505 9.09134 5.13376 9.10134 5.15978C9.11894 5.28512 9.18194 5.34919 9.29054 5.34919C9.45194 5.34919 9.62154 5.22385 9.80094 4.97058V1.56027H10.6087V6.02232H9.80094V5.53539ZM7.67822 10.7473C7.81142 10.6156 7.94502 10.5527 8.07643 10.5527C8.30663 10.5527 8.42423 10.7575 8.42423 11.1554V13.0404C8.42423 13.4395 8.30663 13.6355 8.07643 13.6355C7.94502 13.6355 7.81142 13.5728 7.67822 13.4395V10.7473ZM11.0424 10.5527C10.7752 10.5527 10.6416 10.7575 10.6416 11.166V11.574H11.4402V11.166C11.4402 10.7575 11.3064 10.5527 11.0424 10.5527ZM6.04297 2.85253C6.04297 2.43948 6.16817 2.23406 6.42897 2.23406C6.68917 2.23406 6.81377 2.43948 6.81377 2.85253V4.72997C6.81377 5.14262 6.68917 5.34925 6.42897 5.34925C6.16817 5.34925 6.04297 5.14262 6.04297 4.72997V2.85253ZM6.42896 6.08427C6.83356 6.08427 7.14736 5.9313 7.37097 5.62737C7.54017 5.40313 7.62197 5.05195 7.62197 4.57743V3.01453C7.62197 2.53781 7.54017 2.18923 7.37097 1.96339C7.14736 1.65865 6.83356 1.50589 6.42896 1.50589C6.02656 1.50589 5.71155 1.65865 5.48855 1.96339C5.31615 2.18923 5.23535 2.53781 5.23535 3.01453V4.57743C5.23535 5.05195 5.31615 5.40313 5.48855 5.62737C5.71155 5.9313 6.02656 6.08427 6.42896 6.08427ZM10.6416 12.2407H12.2396V11.3261C12.2396 10.8536 12.1594 10.5084 11.9918 10.2851C11.7684 9.98281 11.4502 9.83245 11.0494 9.83245C10.6416 9.83245 10.3224 9.98281 10.0924 10.2851C9.92181 10.5084 9.84521 10.8536 9.84521 11.3261V12.8728C9.84521 13.3413 9.93182 13.69 10.1018 13.9107C10.3324 14.2124 10.6504 14.3634 11.0694 14.3634C11.4866 14.3634 11.8144 14.2052 12.036 13.8847C12.1326 13.7431 12.195 13.5819 12.2222 13.4051C12.2294 13.3246 12.2396 13.1467 12.2396 12.8896V12.773H11.4238C11.4238 13.0942 11.4142 13.2708 11.4066 13.3144C11.3606 13.5285 11.2454 13.6356 11.0494 13.6356C10.7752 13.6356 10.6416 13.4322 10.6416 13.0227V12.2407ZM9.14292 13.8672C9.19572 13.68 9.22312 13.3857 9.22312 12.9775V11.2188C9.22312 10.8011 9.19572 10.5084 9.14292 10.3308C9.03592 10.0002 8.82212 9.83246 8.50372 9.83246C8.21031 9.83246 7.93611 9.99384 7.67811 10.3112V8.37568H6.87891V14.3023H7.67811V13.8747C7.94491 14.2052 8.21912 14.3634 8.50372 14.3634C8.82212 14.3634 9.03592 14.1956 9.14292 13.8672ZM5.38679 14.3023H6.1868V9.88628H5.38679V13.2616C5.21019 13.5116 5.04159 13.6356 4.88139 13.6356C4.77439 13.6356 4.71379 13.5727 4.69419 13.4486C4.68699 13.4229 4.68699 13.3246 4.68699 13.1374V9.88628H3.88818V13.3785C3.88818 13.69 3.91478 13.9004 3.95898 14.035C4.03798 14.2588 4.21599 14.3633 4.47379 14.3633C4.76739 14.3633 5.06939 14.1854 5.38679 13.821V14.3023ZM2.81456 9.21058H3.77237V8.37568H0.985352V9.21058H1.92556V14.3023H2.81456V9.21058ZM11.5669 7.0076C12.2599 7.08468 12.8347 7.60425 12.9959 8.30761C13.2253 9.30719 13.2253 10.3955 13.2253 11.4245V11.4378C13.2253 12.4701 13.2245 13.5653 12.9933 14.5678C12.8317 15.2714 12.2565 15.7906 11.5639 15.8688C9.92406 16.0518 8.26385 16.0526 6.61164 16.0518C4.95923 16.0526 3.29942 16.0518 1.65941 15.8688C0.966406 15.7906 0.391603 15.2714 0.230202 14.5678C0 13.5653 0 12.4701 0 11.4378C0 10.4049 0.00220002 9.31151 0.233002 8.30761C0.394003 7.60425 0.969406 7.08468 1.66201 7.0076C3.30222 6.8236 4.96183 6.8234 6.61424 6.8236C8.26645 6.8234 9.92667 6.8236 11.5669 7.0076Z" fill="#2C2D2E"/>
</svg>
