<svg width="14" height="16" viewBox="0 0 14 16" fill="none" xmlns="http://www.w3.org/2000/svg">
<path id="Youtube" fill-rule="evenodd" clip-rule="evenodd" d="M3.25462 5.98124V3.55862C3.17382 3.12902 2.99402 2.50042 2.70702 1.66621C2.61137 1.38494 2.51356 1.1029 2.41578 0.82095L2.41577 0.820936L2.41577 0.820923L2.41574 0.820837C2.32073 0.546877 2.22575 0.273001 2.13281 0H3.07562L3.71122 2.34862L4.32243 0H5.22783L4.15043 3.55862V5.98124H3.25462ZM9.80094 5.49481C9.47914 5.86382 9.17254 6.04302 8.87834 6.04302C8.61794 6.04302 8.43853 5.93722 8.35813 5.71121C8.31353 5.57661 8.28613 5.36281 8.28613 5.04861V1.52399H9.09134V4.80541C9.09134 4.99501 9.09134 5.09361 9.10134 5.11961C9.11894 5.24481 9.18194 5.30881 9.29054 5.30881C9.45194 5.30881 9.62154 5.18361 9.80094 4.93061V1.52399H10.6087V5.98122H9.80094V5.49481ZM7.67822 10.7011C7.81142 10.5695 7.94503 10.5067 8.07643 10.5067C8.30663 10.5067 8.42423 10.7113 8.42423 11.1087V12.9917C8.42423 13.3903 8.30663 13.5861 8.07643 13.5861C7.94503 13.5861 7.81142 13.5235 7.67822 13.3903V10.7011ZM11.0424 10.5067C10.7752 10.5067 10.6416 10.7113 10.6416 11.1193V11.5269H11.4402V11.1193C11.4402 10.7113 11.3064 10.5067 11.0424 10.5067ZM6.04299 2.81485C6.04299 2.40224 6.16819 2.19704 6.42899 2.19704C6.68919 2.19704 6.8138 2.40224 6.8138 2.81485V4.69026C6.8138 5.10246 6.68919 5.30886 6.42899 5.30886C6.16819 5.30886 6.04299 5.10246 6.04299 4.69026V2.81485ZM6.42896 6.0431C6.83356 6.0431 7.14737 5.8903 7.37097 5.58669C7.54017 5.36269 7.62197 5.01189 7.62197 4.53789V2.97668C7.62197 2.50047 7.54017 2.15227 7.37097 1.92667C7.14737 1.62227 6.83356 1.46967 6.42896 1.46967C6.02656 1.46967 5.71156 1.62227 5.48855 1.92667C5.31615 2.15227 5.23535 2.50047 5.23535 2.97668V4.53789C5.23535 5.01189 5.31615 5.36269 5.48855 5.58669C5.71156 5.8903 6.02656 6.0431 6.42896 6.0431ZM10.6416 12.1929H12.2397V11.2792C12.2397 10.8072 12.1595 10.4624 11.9918 10.2394C11.7684 9.93744 11.4502 9.78723 11.0494 9.78723C10.6416 9.78723 10.3224 9.93744 10.0924 10.2394C9.92184 10.4624 9.84524 10.8072 9.84524 11.2792V12.8243C9.84524 13.2923 9.93184 13.6407 10.1018 13.8611C10.3324 14.1625 10.6504 14.3133 11.0694 14.3133C11.4866 14.3133 11.8144 14.1553 12.036 13.8351C12.1327 13.6937 12.1951 13.5327 12.2223 13.3561C12.2295 13.2757 12.2397 13.0979 12.2397 12.8411V12.7247H11.4238C11.4238 13.0455 11.4142 13.2219 11.4066 13.2655C11.3606 13.4793 11.2454 13.5863 11.0494 13.5863C10.7752 13.5863 10.6416 13.3831 10.6416 12.9741V12.1929ZM9.14294 13.8177C9.19574 13.6307 9.22314 13.3367 9.22314 12.9289V11.1721C9.22314 10.7548 9.19574 10.4624 9.14294 10.285C9.03594 9.95484 8.82214 9.78724 8.50374 9.78724C8.21033 9.78724 7.93613 9.94844 7.67813 10.2654V8.33203H6.87893V14.2523H7.67813V13.8251C7.94493 14.1553 8.21914 14.3133 8.50374 14.3133C8.82214 14.3133 9.03594 14.1457 9.14294 13.8177ZM5.38681 14.2522H6.18682V9.84101H5.38681V13.2126C5.21021 13.4624 5.04161 13.5862 4.88141 13.5862C4.77441 13.5862 4.71381 13.5234 4.69421 13.3994C4.68701 13.3738 4.68701 13.2756 4.68701 13.0886V9.84101H3.8882V13.3294C3.8882 13.6406 3.9148 13.8508 3.959 13.9852C4.038 14.2088 4.21601 14.3132 4.47381 14.3132C4.76741 14.3132 5.06941 14.1354 5.38681 13.7714V14.2522ZM2.81458 9.16604H3.77239V8.33203H0.985371V9.16604H1.92558V14.2523H2.81458V9.16604ZM11.5669 6.96543C12.2599 7.04243 12.8347 7.56143 12.9959 8.26404C13.2253 9.26253 13.2253 10.3497 13.2253 11.3775V11.3909C13.2253 12.4221 13.2245 13.5161 12.9933 14.5175C12.8317 15.2203 12.2565 15.7389 11.5639 15.8171C9.92406 15.9999 8.26385 16.0007 6.61164 15.9999C4.95923 16.0007 3.29942 15.9999 1.65941 15.8171C0.966406 15.7389 0.391603 15.2203 0.230202 14.5175C0 13.5161 0 12.4221 0 11.3909C0 10.3591 0.00220002 9.26685 0.233002 8.26404C0.394003 7.56143 0.969406 7.04243 1.66201 6.96543C3.30222 6.78163 4.96183 6.78143 6.61424 6.78163C8.26645 6.78143 9.92667 6.78163 11.5669 6.96543Z" fill="#58C3F0"/>
</svg>
